<svg xmlns="http://www.w3.org/2000/svg" width="90" height="90" viewBox="0 0 90 90">
    <defs>
        <linearGradient id="458svpodoa" x1="31.769%" x2="67.339%" y1="85.389%" y2="12.338%">
            <stop offset="0%" stop-color="#EED781"/>
            <stop offset="17.891%" stop-color="#9F823F"/>
            <stop offset="42.679%" stop-color="#D9BD5F"/>
            <stop offset="62.718%" stop-color="#EAE8CF"/>
            <stop offset="100%" stop-color="#FCE992"/>
        </linearGradient>
    </defs>
    <g fill="none" fill-rule="evenodd">
        <path fill="url(#458svpodoa)" d="M12.255 30c.753 0 1.399.536 1.537 1.276l1.796 9.661c.085.457-.038.928-.335 1.285-.296.357-.737.563-1.201.563H9.375v3.828h4.687c.479 0 .907.216 1.193.555 1.206-1.146 2.734-1.954 4.434-2.275v-7.967c0-3.274 2.663-5.937 5.937-5.937h10c1.73 0 3.289.744 4.375 1.928 1.086-1.184 2.645-1.928 4.375-1.928h10c3.273 0 5.937 2.663 5.937 5.937v7.968c1.698.32 3.225 1.129 4.432 2.274.286-.339.714-.555 1.192-.555h4.688v-3.828h-4.677c-.465 0-.905-.206-1.202-.563-.297-.357-.42-.828-.334-1.285l1.796-9.66c.137-.74.783-1.278 1.536-1.278h8.887c.753 0 1.398.537 1.536 1.277l1.796 9.661c.085.457-.037.928-.334 1.285-.297.357-.737.563-1.202.563H73.75v3.828h4.688c.862 0 1.562.7 1.562 1.563v21.822c0 .863-.7 1.563-1.563 1.563H1.564C.7 71.56 0 70.86 0 69.998V48.176c0-.863.7-1.563 1.563-1.563H6.25v-3.828H1.572c-.464 0-.904-.206-1.201-.563-.297-.357-.42-.828-.335-1.285l1.797-9.66c.137-.74.783-1.278 1.536-1.278zm64.62 19.738H67.5v18.698h9.375V49.738zm-18.203-1.875H21.328c-2.217 0-4.142 1.273-5.085 3.125h9.665c.863 0 1.562.7 1.562 1.563 0 .862-.7 1.562-1.562 1.562H15.625v14.323h48.75v-5.573H27.008c-.863 0-1.563-.7-1.563-1.562 0-.863.7-1.563 1.563-1.563h37.367v-6.172c0-3.144-2.558-5.703-5.703-5.703zM12.5 49.738H3.125v18.698H12.5V49.738zm8.283 10c.41 0 .814.167 1.104.457.291.292.458.694.458 1.107 0 .41-.167.812-.458 1.103-.29.292-.693.46-1.104.46-.411 0-.814-.168-1.105-.46-.29-.29-.458-.692-.458-1.103 0-.413.167-.816.458-1.107.29-.29.694-.457 1.105-.457zm12.209-8.75c.41 0 .814.167 1.104.458.291.29.458.693.458 1.104 0 .413-.167.814-.458 1.105-.29.292-.693.458-1.104.458-.413 0-.814-.166-1.107-.458-.29-.29-.456-.694-.456-1.105 0-.41.166-.812.456-1.104.293-.291.694-.458 1.107-.458zm2.634-16.874h-10c-1.55 0-2.812 1.261-2.812 2.812v7.812H38.44v-7.812c0-1.55-1.262-2.812-2.813-2.812zm18.75 0h-10c-1.55 0-2.813 1.261-2.813 2.812v7.812h15.625v-7.812c0-1.55-1.262-2.812-2.812-2.812zm20.956-.99h-6.289l-1.215 6.536h8.72l-1.216-6.536zm-64.375 0h-6.29L3.454 39.66h8.719l-1.215-6.536zM35.072 0c.863 0 1.562.7 1.562 1.563v16.249c0 .863-.7 1.563-1.562 1.563H11.727c-.863 0-1.563-.7-1.563-1.563V1.562c0-.862.7-1.562 1.563-1.562zm33.203 0c.863 0 1.563.7 1.563 1.563v16.249c0 .863-.7 1.563-1.563 1.563H44.93c-.863 0-1.562-.7-1.562-1.563V1.562C43.368.7 44.068 0 44.93 0zM33.51 3.125H13.29V16.25h20.22V3.125zm33.203 0h-20.22V16.25h20.22V3.125z" transform="translate(5 9)"/>
    </g>
</svg>
