<?xml version="1.0" encoding="utf-8"?>
<!-- Generator: Adobe Illustrator 28.0.0, SVG Export Plug-In . SVG Version: 6.00 Build 0)  -->
<svg version="1.1" id="圖層_1" xmlns="http://www.w3.org/2000/svg" xmlns:xlink="http://www.w3.org/1999/xlink" x="0px" y="0px"
	 viewBox="0 0 90 90" style="enable-background:new 0 0 90 90;" xml:space="preserve">
<style type="text/css">
	.st0{fill:url(#SVGID_1_);}
	.st1{fill:url(#SVGID_00000033365793586732467410000010339569253769969048_);}
	.st2{fill:url(#SVGID_00000078038245749988923790000009575308049625958317_);}
</style>
<g>
	<linearGradient id="SVGID_1_" gradientUnits="userSpaceOnUse" x1="79.1334" y1="82.9069" x2="16.167" y2="-7.9403">
		<stop  offset="0" style="stop-color:#EED781"/>
		<stop  offset="0.1789" style="stop-color:#9F823F"/>
		<stop  offset="0.4268" style="stop-color:#D9BD5F"/>
		<stop  offset="0.6272" style="stop-color:#EAE8CF"/>
		<stop  offset="1" style="stop-color:#FCE992"/>
	</linearGradient>
	<path class="st0" d="M63.5,33.7C63.5,23.4,55.2,15,45,15c-10.2,0-18.5,8.4-18.5,18.6S34.8,52.3,45,52.3
		C55.2,52.3,63.5,43.9,63.5,33.7z M29.7,33.7c0-8.5,6.8-15.4,15.3-15.4s15.3,6.9,15.3,15.4S53.4,49.1,45,49.1S29.7,42.2,29.7,33.7z"
		/>
	
		<linearGradient id="SVGID_00000114050478676380230290000009275849357746519214_" gradientUnits="userSpaceOnUse" x1="79.1334" y1="82.9069" x2="16.167" y2="-7.9403">
		<stop  offset="0" style="stop-color:#EED781"/>
		<stop  offset="0.1789" style="stop-color:#9F823F"/>
		<stop  offset="0.4268" style="stop-color:#D9BD5F"/>
		<stop  offset="0.6272" style="stop-color:#EAE8CF"/>
		<stop  offset="1" style="stop-color:#FCE992"/>
	</linearGradient>
	<path style="fill:url(#SVGID_00000114050478676380230290000009275849357746519214_);" d="M49.7,41.3v-2.9h2.9
		c0.9,0,1.6-0.7,1.6-1.6v-6.2c0-0.9-0.7-1.6-1.6-1.6h-2.9V26c0-0.9-0.7-1.6-1.6-1.6h-6.3c-0.9,0-1.6,0.7-1.6,1.6v2.9h-2.9
		c-0.9,0-1.6,0.7-1.6,1.6v6.2c0,0.9,0.7,1.6,1.6,1.6h2.9v2.9c0,0.9,0.7,1.6,1.6,1.6h6.3C49,42.9,49.7,42.2,49.7,41.3z M46.5,36.8
		v2.9h-3v-2.9c0-0.9-0.7-1.6-1.6-1.6h-2.9v-3h2.9c0.9,0,1.6-0.7,1.6-1.6v-2.9h3v2.9c0,0.9,0.7,1.6,1.6,1.6h2.9v3h-2.9
		C47.2,35.2,46.5,35.9,46.5,36.8z"/>
	
		<linearGradient id="SVGID_00000124880028093896546420000005255274379855050377_" gradientUnits="userSpaceOnUse" x1="72.2472" y1="87.6797" x2="9.2807" y2="-3.1674">
		<stop  offset="0" style="stop-color:#EED781"/>
		<stop  offset="0.1789" style="stop-color:#9F823F"/>
		<stop  offset="0.4268" style="stop-color:#D9BD5F"/>
		<stop  offset="0.6272" style="stop-color:#EAE8CF"/>
		<stop  offset="1" style="stop-color:#FCE992"/>
	</linearGradient>
	<path style="fill:url(#SVGID_00000124880028093896546420000005255274379855050377_);" d="M76.4,43.1h-2.6v-5.5v-5.4
		C73.9,16.5,60.9,3.6,45,3.6c-15.9,0-28.9,12.8-28.9,28.6v10.9h-2.6c-3.8,0-6.9,3.1-6.9,6.9v7.6c0,3.8,3.1,6.9,6.9,6.9h2.6
		c0,0.8,0.7,1.5,1.6,1.5h2.8c3.4,0,6.2-2.8,6.2-6.2v-12c0-3.4-2.8-6.2-6.2-6.2h-1.2v-9.5c0-14,11.5-25.3,25.6-25.3
		s25.6,11.4,25.6,25.3v5.4v4h-1.2c-3.4,0-6.2,2.8-6.2,6.2v12c0,3.4,2.8,6.2,6.2,6.2h1.2v3.8c0,1.8-1.1,3.8-2.8,5.4
		c-2,1.7-4.5,2.7-7,2.7h-9.1c-0.7-3-3.4-5.2-6.7-5.2c-3.8,0-6.8,3-6.8,6.8c0,3.7,3.1,6.8,6.8,6.8c3.2,0,5.9-2.2,6.7-5.2h9.1
		c3.4,0,6.6-1.3,9.2-3.5c2.5-2.2,3.9-5.1,3.9-7.8v-5.3h2.6c3.8,0,6.9-3.1,6.9-6.9V50C83.3,46.2,80.2,43.1,76.4,43.1z M10,57.6V50
		c0-2,1.6-3.6,3.6-3.6h2.5l0,14.9h-2.6C11.6,61.3,10,59.6,10,57.6z M20.6,44.9c1.6,0,3,1.3,3,3v12c0,1.6-1.3,3-3,3h-1.2v-5.1V44.9
		H20.6z M45,83.1c-2,0-3.6-1.6-3.6-3.6c0-2,1.6-3.6,3.6-3.6c2,0,3.6,1.6,3.6,3.6C48.6,81.5,47,83.1,45,83.1z M69.4,62.8
		c-1.6,0-3-1.3-3-3v-12c0-1.6,1.3-3,3-3h1.2v12.8v5.1H69.4z M80,57.6c0,2-1.6,3.6-3.6,3.6h-2.5V46.3h2.5c2,0,3.6,1.6,3.6,3.6V57.6z"
		/>
</g>
</svg>
