<svg xmlns="http://www.w3.org/2000/svg" width="90" height="90" viewBox="0 0 90 90">
    <defs>
        <linearGradient id="us509vel8a" x1="31.769%" x2="67.339%" y1="87.305%" y2="10.298%">
            <stop offset="0%" stop-color="#EED781"/>
            <stop offset="17.891%" stop-color="#9F823F"/>
            <stop offset="42.679%" stop-color="#D9BD5F"/>
            <stop offset="62.718%" stop-color="#EAE8CF"/>
            <stop offset="100%" stop-color="#FCE992"/>
        </linearGradient>
    </defs>
    <path fill="url(#us509vel8a)" fill-rule="evenodd" d="M77.66 42.384c0 .596-.484 1.08-1.08 1.08H3.42c-.596 0-1.08-.484-1.08-1.08v-1.417c0-.596.484-1.08 1.08-1.08H76.58c.595 0 1.078.483 1.078 1.08v1.417zm-29.268 3.984c-.087-.197-.191-.385-.31-.564h11.226l-4.854 3.212-6.918 2.002-.235.005c1.332-1.11 1.818-3.006 1.091-4.655zm-15.684-.564h2.994l-1.689.352-1.305-.352zm31.902 2.142c-.028.02-.055.042-.081.066l-7.406 6.56c-2.088 1.637-4.444 2.826-7.002 3.533l-4.31 1.19c-2.774.768-5.724.927-8.531.462-2.736-.453-6.786-.96-10.373-.13-2.078.482-3.975 1.676-5.355 3.336l-11.061-7.514 5.368-6.52c2.031-1.917 4.606-3.056 7.072-3.125h.048c.764-.013 1.574.212 2.43.452.172.048.344.096.516.142l7.749 2.09c.177.048.363.054.544.016l10.148-2.116c.46-.095.944-.002 1.327.258.247.167.44.398.558.666.348.79.02 1.716-.758 2.116l-3.462 1.834c-.48.254-.721.803-.585 1.328.137.525.615.883 1.158.876l5.136-.111c.102-.003.203-.018.3-.046l7.236-2.094c.115-.033.223-.083.322-.148l7.3-4.833c.613-.378 1.429-.69 1.863-.05.338.499.346 1.395-.151 1.762zM22.504 67.517L20.32 70.74c-.134.198-.336.331-.57.376-.235.045-.473-.004-.67-.138L4.128 60.819c-.406-.276-.512-.831-.236-1.238l2.185-3.222c.133-.197.335-.331.57-.376.057-.01.113-.016.17-.016.176 0 .35.053.499.155l.807.548 14.144 9.609c.407.276.513.832.237 1.238zM40 2.341c1.97 0 3.152.487 3.368.758-.016 1.11-.577 2.135-1.491 2.749-.23-.012-.457-.022-.684-.03-.076-.003-.152-.007-.229-.009-.326-.01-.648-.014-.964-.014-.224 0-.452.003-.682.008l-.335.008-.402.014-.458.022c-.914-.614-1.475-1.638-1.49-2.748.215-.27 1.396-.758 3.367-.758zm36.58 35.207h-2.766c-.003 0-.005-.003-.005-.005-.26-4.221-1.29-8.295-3.068-12.124-.272-.587-.967-.84-1.554-.57-.587.273-.841.969-.569 1.555 1.635 3.52 2.588 7.261 2.845 11.138 0 .003-.002.006-.005.006H8.542c-.003 0-.006-.003-.005-.006.517-7.772 3.85-15.002 9.468-20.47 5.415-5.271 12.412-8.374 19.89-8.866h.013c.318-.021.633-.037.945-.049l.186-.006.33-.009c.21-.004.42-.007.63-.007.28 0 .56.005.839.013l.247.007c.215.007.43.018.644.03.113.006.227.012.34.02 9.608.63 18.447 5.627 23.948 13.638.365.532 1.094.669 1.627.302.533-.365.668-1.094.302-1.627-5.41-7.881-13.832-13.044-23.14-14.378-.004 0-.006-.005-.004-.008.58-.904.907-1.968.907-3.082 0-.636-.284-1.808-2.185-2.508C42.575.193 41.324 0 40 0c-1.324 0-2.576.193-3.525.542-1.9.7-2.184 1.872-2.184 2.508 0 1.111.325 2.173.902 3.075.002.004 0 .008-.004.008-7.066 1.002-13.62 4.202-18.817 9.261-6.072 5.912-9.66 13.74-10.18 22.148-.001.003-.003.005-.006.005H3.414C1.53 37.547 0 39.08 0 40.961v1.423c0 1.889 1.531 3.42 3.42 3.42h12.583c.006 0 .008.007.003.01-.624.428-1.222.908-1.782 1.44l-.024.023c-.036.033-.07.07-.1.108l-5.554 6.743c-.002.002-.005.002-.007 0-.696-.44-1.52-.6-2.332-.444-.85.162-1.584.646-2.068 1.361l-2.185 3.222c-1 1.474-.614 3.488.859 4.488l14.952 10.158c.542.368 1.168.56 1.81.56.204 0 .41-.02.614-.06.849-.162 1.583-.645 2.067-1.36l2.185-3.222c1-1.474.615-3.488-.858-4.488l-.086-.058c1.04-1.181 2.428-2.028 3.938-2.377 3.18-.737 6.923-.263 9.461.158 3.14.52 6.439.342 9.539-.514l4.309-1.19c2.87-.794 5.512-2.13 7.853-3.972l.051-.044 7.398-6.552c1.259-.963 1.535-2.63 1.103-3.983-.001-.004.001-.007.005-.007h9.427c1.888 0 3.419-1.53 3.419-3.42v-1.417c0-1.889-1.53-3.42-3.42-3.42z" transform="translate(5 8)"/>
</svg>
