<svg xmlns="http://www.w3.org/2000/svg" width="90" height="90" viewBox="0 0 90 90">
    <defs>
        <linearGradient id="8uzbtyvhba" x1="31.769%" x2="67.339%" y1="71.568%" y2="27.047%">
            <stop offset="0%" stop-color="#EED781"/>
            <stop offset="17.891%" stop-color="#9F823F"/>
            <stop offset="42.679%" stop-color="#D9BD5F"/>
            <stop offset="62.718%" stop-color="#EAE8CF"/>
            <stop offset="100%" stop-color="#FCE992"/>
        </linearGradient>
    </defs>
    <g fill="none" fill-rule="evenodd">
        <path fill="url(#8uzbtyvhba)" d="M74.38.907c1.561-.015 3.066.585 4.188 1.672.909.887 1.425 2.1 1.432 3.37l-.045 39.133c0 .304-.095.6-.27.85l-6.725 9.485c-.276.388-.724.62-1.2.62-.478 0-.926-.232-1.202-.62l-6.724-9.486c-.176-.248-.27-.545-.271-.85l-.045-39.13c.007-1.27.523-2.484 1.432-3.371C66.07 1.493 67.576.892 69.137.907zM13.387.172c.813 0 1.404.72 1.404 1.533v6.576l44.466.07c.824-.003 1.5.648 1.527 1.471v41.733c0 .812-.706 1.418-1.519 1.418H6.191c-3.419 0-6.118-2.83-6.118-6.374V6.243H0C.174 2.93 2.885.172 6.191.172zm62.248 46.361h-7.753l3.876 5.469 3.877-5.469zM14.791 11.225V41.21c.015.382-.127.753-.391 1.028-.265.275-.63.431-1.013.431H6.191c-1.795 0-3.175 1.576-3.175 3.498v.43c0 1.922 1.38 3.43 3.175 3.43h51.65V11.292l-43.05-.066zm62.257 1.457H66.469l.035 30.908h10.508l.036-30.908zM11.847 3.115H6.191c-1.795 0-3.175 1.625-3.175 3.547V40.7c.937-.634 2.043-.974 3.175-.975h5.656V3.116zM47.7 22.4c.448-.279 1.011-.297 1.476-.047.465.25.76.73.774 1.259.014.527-.257 1.021-.708 1.295L26.285 39.024c-.588.362-1.35.265-1.83-.233l-3.562-3.694c-.37-.377-.51-.924-.365-1.432.145-.509.552-.9 1.065-1.026.513-.127 1.055.032 1.418.415l2.741 2.843 11.44-7.035-5.912-2.25c-.76-.289-1.141-1.139-.852-1.898.289-.76 1.139-1.142 1.9-.853l8.028 3.054zM74.38 3.85h-5.243c-.78-.017-1.538.273-2.105.81-.355.323-.562.777-.572 1.256l.005 3.821h10.586l.004-3.82c-.01-.48-.216-.934-.57-1.258-.568-.535-1.325-.826-2.105-.809z" transform="translate(5 17) translate(0 .013)"/>
    </g>
</svg>
