<svg xmlns="http://www.w3.org/2000/svg" width="90" height="90" viewBox="0 0 90 90">
    <defs>
        <linearGradient id="jt1iowzy7a" x1="31.769%" x2="67.339%" y1="91.057%" y2="6.305%">
            <stop offset="0%" stop-color="#EED781"/>
            <stop offset="17.891%" stop-color="#9F823F"/>
            <stop offset="42.679%" stop-color="#D9BD5F"/>
            <stop offset="62.718%" stop-color="#EAE8CF"/>
            <stop offset="100%" stop-color="#FCE992"/>
        </linearGradient>
    </defs>
    <path fill="url(#jt1iowzy7a)" fill-rule="evenodd" d="M83.381 56.707c.598 0 1.084.486 1.084 1.085v17.244c0 .598-.486 1.089-1.084 1.089H57.227c-3.789 0-7.47 1.089-10.647 3.15l-3.753 2.43c-.18.117-.387.175-.594.175-.207 0-.414-.058-.594-.175l-3.753-2.43c-3.177-2.061-6.858-3.15-10.647-3.15H1.085c-.594 0-1.085-.49-1.085-1.09V57.793c0-.599.491-1.085 1.085-1.085.603 0 1.093.486 1.093 1.085v16.155h25.06c4.213 0 8.303 1.21 11.836 3.505l3.159 2.048 3.159-2.048c3.532-2.295 7.623-3.505 11.835-3.505h25.06V57.792c0-.599.49-1.085 1.094-1.085zM28.914 33.375c3.762 0 7.416 1.084 10.575 3.127l2.745 1.782 2.74-1.782c3.16-2.043 6.818-3.127 10.58-3.127h23.238c.598 0 1.084.486 1.084 1.089v35.748c0 .603-.486 1.089-1.084 1.089H55.554c-3.34 0-6.588.958-9.396 2.78l-3.33 2.16-.022.014c-.166.103-.362.163-.573.163-.215 0-.415-.062-.583-.17l-.01-.006-3.33-2.16c-2.808-1.823-6.057-2.781-9.396-2.781H5.68c-.603 0-1.089-.486-1.089-1.09V34.465c0-.603.486-1.09 1.09-1.09h23.233zm0 2.173H6.764v33.58h22.15c3.762 0 7.416 1.08 10.575 3.127l1.66 1.074V56.523c0-.603.481-1.084 1.084-1.084.603 0 1.084.481 1.084 1.084v16.805l1.657-1.073c3.16-2.048 6.818-3.128 10.58-3.128h22.149V35.548h-22.15c-3.338 0-6.587.963-9.395 2.781l-2.84 1.845v9.104c0 .603-.482 1.089-1.085 1.089s-1.085-.486-1.085-1.09v-9.103L38.31 38.33c-2.808-1.818-6.057-2.78-9.396-2.78zm-.37 25.003c.603 0 1.089.486 1.089 1.089s-.486 1.084-1.09 1.084H11.517c-.603 0-1.085-.481-1.085-1.084 0-.603.482-1.09 1.085-1.09h17.028zm44.407 0c.603 0 1.089.486 1.089 1.089s-.486 1.084-1.09 1.084H55.924c-.603 0-1.09-.481-1.09-1.084 0-.603.487-1.09 1.09-1.09H72.95zm-44.407-6.64c.603 0 1.089.481 1.089 1.084 0 .603-.486 1.089-1.09 1.089H11.517c-.603 0-1.085-.486-1.085-1.089s.482-1.084 1.085-1.084h17.028zm44.407 0c.603 0 1.089.481 1.089 1.084 0 .603-.486 1.089-1.09 1.089H55.924c-.603 0-1.09-.486-1.09-1.089s.487-1.084 1.09-1.084H72.95zm-44.407-6.645c.603 0 1.089.486 1.089 1.09 0 .598-.486 1.084-1.09 1.084H11.517c-.603 0-1.085-.486-1.085-1.085 0-.603.482-1.089 1.085-1.089h17.028zm44.407 0c.603 0 1.089.486 1.089 1.09 0 .598-.486 1.084-1.09 1.084H55.924c-.603 0-1.09-.486-1.09-1.085 0-.603.487-1.089 1.09-1.089H72.95zm-44.407-6.644c.603 0 1.089.486 1.089 1.089s-.486 1.084-1.09 1.084H11.517c-.603 0-1.085-.481-1.085-1.084 0-.603.482-1.09 1.085-1.09h17.028zm44.407 0c.603 0 1.089.486 1.089 1.089s-.486 1.084-1.09 1.084H55.924c-.603 0-1.09-.481-1.09-1.084 0-.603.487-1.09 1.09-1.09H72.95zM12.06 31.457c-.599-.05-1.04-.58-.99-1.179C12.478 14.141 25.875 1.973 42.232 1.973h.001c14.015 0 25.965 9.209 29.91 22.23.094.157.144.333.15.512.509 1.785.867 3.64 1.061 5.55.063.598-.373 1.13-.972 1.192-.036.005-.072.005-.112.005-.55 0-1.026-.419-1.08-.977-.18-1.764-.519-3.482-1.002-5.14l.352.267c-3.007-2.342-7.252-4.238-12.194-5.542.582 2.958.97 6.105 1.142 9.371.002.05 0 .097-.003.145.013.248.025.497.035.746.027.599-.436 1.103-1.04 1.13h-.044c-.58 0-1.062-.455-1.09-1.04-.16-3.82-.632-7.51-1.37-10.92-3.94-.855-8.242-1.35-12.659-1.42v12.295c0 .603-.481 1.085-1.084 1.085-.603 0-1.085-.482-1.085-1.085V18.083c-4.416.07-8.717.565-12.658 1.42-.737 3.41-1.209 7.098-1.37 10.92-.027.598-.5 1.088-1.134 1.039-.442-.02-.81-.296-.963-.678l-.037-.107c-.031-.11-.046-.225-.04-.345.148-3.513.554-6.927 1.186-10.134l.027-.137c-4.809 1.265-8.96 3.09-11.955 5.34-.471 1.66-.755 3.065-.916 4.55-.018.172-.034.344-.05.516-.053.603-.566 1.053-1.178.99zm14.924-30.17c.28.535.077 1.192-.459 1.476C16.324 8.14 9.538 18.189 8.372 29.64c-.054.563-.53.981-1.08.981-.706-.067-1.143-.603-1.08-1.201C7.445 17.244 14.663 6.556 25.517.837c.527-.284 1.184-.081 1.467.45zM58.91.626c10.854 5.72 18.072 16.407 19.306 28.584.063.598-.374 1.134-.972 1.192-.032.005-.072.01-.108.01-.554 0-1.026-.419-1.08-.982C74.889 17.978 68.103 7.93 57.9 2.552c-.535-.284-.738-.94-.459-1.476.284-.531.941-.729 1.468-.45zM31.06 6.309l-.389.163C23.674 9.434 18.107 15.029 15.242 22.1c3.163-1.88 7.067-3.384 11.446-4.44 1.056-4.35 2.543-8.234 4.372-11.351zm22.472.196l.243.425c1.694 3.023 3.063 6.67 4.046 10.741 4.24 1.025 8.035 2.471 11.142 4.273-2.995-6.917-8.587-12.472-15.43-15.44zM41.148 4.174c-2.284.084-4.559.435-6.77 1.053-2.235 2.976-4.056 7.105-5.322 11.915 3.785-.746 7.867-1.17 12.092-1.233V4.174zm2.169 0v11.735c4.226.062 8.31.487 12.096 1.234-.673-2.555-1.501-4.917-2.466-7.016l-.165-.354c-.192-.406-.39-.802-.592-1.186l-.06-.115c-.625-1.173-1.296-2.245-2.008-3.199-1.423-.413-2.886-.719-4.38-.906-.02-.005-.042-.008-.064-.01l.065.01c-.148-.019-.297-.036-.445-.053l.38.043c-.784-.093-1.572-.154-2.361-.183z" transform="translate(2 4)"/>
</svg>
