<svg xmlns="http://www.w3.org/2000/svg" width="90" height="90" viewBox="0 0 90 90">
    <defs>
        <linearGradient id="fj13mznr0a" x1="39.941%" x2="59.567%" y1="94.228%" y2="2.93%">
            <stop offset="0%" stop-color="#EED781"/>
            <stop offset="17.891%" stop-color="#9F823F"/>
            <stop offset="42.679%" stop-color="#D9BD5F"/>
            <stop offset="62.718%" stop-color="#EAE8CF"/>
            <stop offset="100%" stop-color="#FCE992"/>
        </linearGradient>
    </defs>
    <path fill="url(#fj13mznr0a)" fill-rule="evenodd" d="M60.091 25.582c-6.773 13.716-17.943 37.855-18.839 49.501h-6.564c3.43-16.37 21.644-44.473 25.614-50.463.011.333-.061.664-.21.962zM46.855 77.917c.782 0 1.416.634 1.416 1.416v2.834H4.354v-2.834c.001-.782.635-1.416 1.417-1.416h41.084zM5.564 11.894l2.798-.443 7.756 48.973-2.799.443-7.755-48.973zM2.835 3.722l5.605-.88.542 3.449.325 2.085c-.002.019.006.037.004.056l-1.475.234-4.108.646-.893-5.59zm17.032 71.361h-5.732l-1.77-11.19.032-.005 5.57-.882 1.9 12.077zm-8.255-65.051c1.127.13 2.243.341 3.339.632l10.098 54.311c-1.242 1.995-2.301 3.71-3.112 5.029l-1.392-8.84c-.059-.371-.263-.704-.567-.925-.303-.224-.683-.315-1.054-.253h-.007l-7.822-49.392c.198-.162.372-.351.517-.562zm20.319 3.72c.328.291.65.559.975.835.038.036.077.07.118.1 8.37 7.073 15.496 8.902 19.487 9.3-.662.827-1.38 1.756-2.162 2.797-5.116-.894-9.942-3.008-14.068-6.163-.016-.012-.03-.024-.047-.035-1.394-1.006-2.736-2.084-4.02-3.228-.827-.735-1.639-1.403-2.443-2.037-.015-.015-.022-.036-.038-.05l-.015-.014c-.033-.03-.074-.039-.109-.065-7.416-5.808-13.787-7.525-17.613-7.972l-.474-3.032c3 .055 10.897 1.109 20.409 9.564zm11.776 14.16c1.547.602 3.142 1.075 4.768 1.416-1.14 1.572-2.333 3.265-3.561 5.042l-1.207-6.458zM29.422 58c-.748 1.183-1.465 2.323-2.152 3.419L18.02 11.67c1.033.4 2.045.852 3.033 1.354L29.422 58zm8.037-33.205c1.072.655 2.106 1.229 3.103 1.722l2.088 11.162c-.724 1.068-1.451 2.151-2.184 3.25l-3.007-16.134zm.758 19.535c-.726 1.105-1.448 2.21-2.167 3.317l-5.154-27.688c1.11.961 2.2 1.834 3.266 2.615l4.055 21.756zM27.486 17.128l6.326 33.982c-.734 1.142-1.454 2.267-2.161 3.377l-7.372-39.614c1.037.66 2.106 1.412 3.207 2.255zm29.022 6.49c.074-.067.14-.142.198-.223.024-.029.057-.061.079-.088.362-.394.87-.623 1.405-.632-3.575 5.342-23.032 35-26.384 52.408h-9.07l-.12-.765c.443-.727 4.316-7.083 9.448-15.198.015-.021.027-.043.04-.065 1.376-2.175 2.842-4.475 4.354-6.823l.034-.054c1.428-2.218 2.896-4.476 4.372-6.718l.034-.052c3.921-5.956 7.886-11.775 11.23-16.272l.002-.005c1.764-2.368 3.195-4.17 4.378-5.512zm3.947-3.276c-1.858-.926-4.099-.565-5.572.896-2.177.072-10.603-.298-21.07-9.603-10.87-9.664-19.906-10.354-22.96-10.27C10.252.387 9.123-.138 7.986.033l-5.58.89c-.747.113-1.418.522-1.862 1.134C.096 2.66-.086 3.42.038 4.16l.89 5.579c.125 1.01.812 1.864 1.774 2.2l7.82 49.376h-.005c-.77.124-1.295.85-1.173 1.62l1.923 12.147H5.77c-2.346.003-4.248 1.904-4.25 4.25v4.25c0 .782.633 1.417 1.415 1.417h46.751c.782 0 1.417-.633 1.417-1.415v-4.252c-.002-2.346-1.904-4.247-4.25-4.25h-2.762c.988-11.624 13.172-37.38 18.538-48.245 1.193-2.395.22-5.303-2.175-6.496z" transform="translate(13 3)"/>
</svg>
