<svg xmlns="http://www.w3.org/2000/svg" width="90" height="90" viewBox="0 0 90 90">
    <defs>
        <linearGradient id="hwmiyw1uka" x1="31.771%" x2="67.337%" y1="94.228%" y2="2.93%">
            <stop offset="0%" stop-color="#EED781"/>
            <stop offset="17.891%" stop-color="#9F823F"/>
            <stop offset="42.679%" stop-color="#D9BD5F"/>
            <stop offset="62.718%" stop-color="#EAE8CF"/>
            <stop offset="100%" stop-color="#FCE992"/>
        </linearGradient>
    </defs>
    <path fill="url(#hwmiyw1uka)" fill-rule="evenodd" d="M66.667.156C67.403.156 68 .753 68 1.49v2.667h5.333c3.68.005 6.663 2.987 6.667 6.667 0 .736-.597 1.333-1.333 1.333H68v16h8c2.208.003 3.998 1.792 4 4v6.667c-.003 1.131-.488 2.208-1.333 2.96v7.706c-.002 2.209-1.792 3.998-4 4H68v19.36l6.166 4.933.008.006c.573.462.663 1.301.201 1.875-.462.573-1.3.663-1.874.201l-5.834-4.667-5.834 4.667-.008.006c-.577.458-1.415.362-1.873-.215-.457-.577-.361-1.415.215-1.873l6.166-4.933V54.822l-.004.45c-.13 7.324-3.432 14.233-9.049 18.935l-.346.286c.036.106.059.217.066.33v4c0 .736-.597 1.333-1.333 1.333s-1.333-.597-1.333-1.333v-2.5c-8.154 5.111-18.513 5.111-26.667 0v2.5c0 .736-.597 1.333-1.333 1.333-.737 0-1.334-.597-1.334-1.333v-4c.008-.113.03-.224.067-.33-5.944-4.8-9.399-12.03-9.4-19.67v18.026l6.166 4.933c.57.46.663 1.293.208 1.867-.458.576-1.297.673-1.873.215l-5.834-4.667L7.5 79.864l-.008.006c-.577.458-1.416.362-1.873-.215-.458-.577-.362-1.415.215-1.873L12 72.849v-19.36H5.333c-2.208-.002-3.997-1.791-4-4v-7.706C.488 41.03.003 39.954 0 38.823v-6.667c.002-2.208 1.792-3.997 4-4h8v-16H1.333C.597 12.156 0 11.56 0 10.823c.004-3.68 2.987-6.662 6.667-6.667H12V1.49c0-.736.597-1.333 1.333-1.333.737 0 1.334.597 1.334 1.333v2.667H20c3.68.005 6.662 2.987 6.666 6.667 0 .736-.596 1.333-1.333 1.333H14.667v16h8c2.208.003 3.997 1.792 4 4v1.167c3.616-2.252 7.745-3.548 12-3.766v-5.4h-12c-.737 0-1.334-.598-1.334-1.334.005-3.68 2.987-6.662 6.667-6.667h6.667V13.49c0-.736.597-1.333 1.333-1.333s1.333.597 1.333 1.333v2.667H48c3.68.005 6.662 2.987 6.667 6.667 0 .736-.597 1.333-1.334 1.333h-12v5.401c4.255.218 8.384 1.514 12 3.766v-1.167c.003-2.208 1.792-3.997 4-4h8v-16H54.667c-.737 0-1.334-.597-1.334-1.333.005-3.68 2.987-6.662 6.667-6.667h5.333V1.49c0-.736.597-1.333 1.334-1.333zM40 32.156c-12.518 0-22.667 10.148-22.667 22.667 0 12.518 10.149 22.666 22.667 22.666 12.513-.013 22.653-10.153 22.667-22.666 0-12.519-10.148-22.667-22.667-22.667zm0 2.667c11.04.012 19.987 8.96 20 20 0 11.046-8.954 20-20 20s-20-8.954-20-20 8.954-20 20-20zm0 2.667c-9.573 0-17.333 7.76-17.333 17.333 0 9.573 7.76 17.333 17.333 17.333 9.569-.01 17.323-7.765 17.334-17.333 0-9.573-7.761-17.333-17.334-17.333zm36 5.333H62.303c1.338 2.496 2.246 5.2 2.683 8h9.68c.737-.001 1.333-.598 1.334-1.334v-6.666zm-58.303 0H4v6.667c.001.736.598 1.332 1.333 1.333h9.681c.438-2.799 1.345-5.504 2.683-8zm59.636-6.667h-4v4H76c.736 0 1.332-.597 1.334-1.333v-2.667zm-6.666 0h-8v4h8v-4zm-64 0h-4v2.667c0 .736.597 1.332 1.333 1.333h2.667v-4zm10.667 0h-8v4h8v-4zm42.666 0h-2.933c1.066.974 2.047 2.036 2.933 3.175v-3.175zm-37.067 0H20v3.175c.886-1.14 1.867-2.201 2.933-3.175zM76 30.823H57.333c-.736 0-1.332.597-1.333 1.333v1.333h21.334v-1.333c-.002-.736-.598-1.332-1.334-1.333zm-53.333 0H4c-.736 0-1.332.597-1.333 1.333v1.333H24v-1.333c0-.736-.597-1.332-1.333-1.333zm25.333-12H32c-1.694.002-3.205 1.07-3.771 2.666H51.77c-.566-1.597-2.077-2.664-3.77-2.666zm-28-12H6.667c-1.695.002-3.205 1.07-3.772 2.666h20.876C23.205 7.892 21.695 6.825 20 6.823zm53.333 0H60c-1.694.002-3.205 1.07-3.771 2.666h20.876c-.567-1.597-2.077-2.664-3.772-2.666z" transform="translate(5 5)"/>
</svg>
