<?xml version="1.0" encoding="utf-8"?>
<!-- Generator: Adobe Illustrator 26.5.0, SVG Export Plug-In . SVG Version: 6.00 Build 0)  -->
<svg version="1.1" id="圖層_1" xmlns="http://www.w3.org/2000/svg" xmlns:xlink="http://www.w3.org/1999/xlink" x="0px" y="0px"
	 viewBox="0 0 131 129" style="enable-background:new 0 0 131 129;" xml:space="preserve">
<style type="text/css">
	.st0{fill:none;stroke:url(#SVGID_1_);stroke-width:1.5;stroke-miterlimit:10;}
	.st1{fill:url(#SVGID_00000074409640573675911890000010580605125096153515_);}
	.st2{fill:url(#SVGID_00000134218634203880862650000011338197224242575798_);}
</style>
<g>
	<linearGradient id="SVGID_1_" gradientUnits="userSpaceOnUse" x1="1.6736" y1="64.4862" x2="129.2804" y2="64.4862">
		<stop  offset="0" style="stop-color:#EED781"/>
		<stop  offset="0.1789" style="stop-color:#9F823F"/>
		<stop  offset="0.4268" style="stop-color:#D9BD5F"/>
		<stop  offset="0.6272" style="stop-color:#EAE8CF"/>
		<stop  offset="1" style="stop-color:#FCE992"/>
	</linearGradient>
	<circle class="st0" cx="65.5" cy="64.5" r="63.1"/>
	
		<linearGradient id="SVGID_00000103954374776668157940000006589614573374791044_" gradientUnits="userSpaceOnUse" x1="60.9146" y1="28.3008" x2="98.1714" y2="28.3008">
		<stop  offset="0" style="stop-color:#EED781"/>
		<stop  offset="0.1789" style="stop-color:#9F823F"/>
		<stop  offset="0.4268" style="stop-color:#D9BD5F"/>
		<stop  offset="0.6272" style="stop-color:#EAE8CF"/>
		<stop  offset="1" style="stop-color:#FCE992"/>
	</linearGradient>
	<path style="fill:url(#SVGID_00000103954374776668157940000006589614573374791044_);" d="M60.9,31.2c0,0,6.3,2.3,8.9,5.6
		s3.3,6.3,3.3,6.3s4,1.7,5.6,0.3c1.7-1.3,5.9-3.6,5.9-3.6l7.3-6.6l2.3-9.2l3.9-4.2L89,16.3l-5.6-3.6l-5.3,3.6l-10.6,4L60.9,31.2z"/>
	<g>
		<g>
			
				<linearGradient id="SVGID_00000002380158424911116800000013754565904325387955_" gradientUnits="userSpaceOnUse" x1="31.5969" y1="65.3657" x2="99.3572" y2="65.3657">
				<stop  offset="0" style="stop-color:#EED781"/>
				<stop  offset="0.1789" style="stop-color:#9F823F"/>
				<stop  offset="0.4268" style="stop-color:#D9BD5F"/>
				<stop  offset="0.6272" style="stop-color:#EAE8CF"/>
				<stop  offset="1" style="stop-color:#FCE992"/>
			</linearGradient>
			<path style="fill:url(#SVGID_00000002380158424911116800000013754565904325387955_);" d="M83.8,14.6c2.2,1.7,4.5,2.8,6.7,3.7
				c1.9,0.8,3.6,1.6,4.8,2.6c-4,4-4.2,9.2-4.4,13.6c-0.2,4.5-0.3,8.3-3.9,11.2c-3.8,3.2-4.5,8.5-5.2,13.8c-0.3,2-0.5,3.9-0.9,5.6
				c-2.4,9.9-6.3,21.2-16.5,30.1c-4.8,4.1-7.1,11-6.4,18.9c0.3,3.5-0.2,3.5-0.9,3.6c-0.2,0-0.4,0-0.6,0c-0.1,0-0.1,0-0.2,0
				c-0.1-0.4-0.1-1-0.1-1.5c0-0.7,0-1.6-0.1-2.4c-0.9-5.9-3.6-9.6-8.3-11.5c-3.6-1.4-5.3-4.2-7.4-7.6c-0.6-1-1.2-2-2-3.1
				c-2.8-4.1-4.1-8.5-3.9-13.5c0.2-4.7,1.6-9.5,3.1-14c1.8-5.4,5.6-10.4,9.7-15.7c1.6-2.1,3.4-4.3,4.9-6.6c1.9-2.8,4.2-5.3,6.6-8
				c2.8-3.1,5.7-6.4,8.1-10.1c1.3-2,4-2.9,7-3.9C77.2,18.8,81,17.6,83.8,14.6 M83.5,10c-4.1,8-14.9,5.6-19,12
				c-4.2,6.6-10.3,11.7-14.6,18.1c-5.3,7.6-12.2,14.7-15,23c-3.2,9.5-5.8,20,1.1,30.2c3.1,4.5,4.9,9.5,10.7,11.8
				c4.4,1.7,5.9,5.3,6.5,9.2c0.4,2.7-0.8,6.5,3.4,6.5c0.3,0,0.6,0,0.9,0c3.8-0.4,3.8-4,3.5-6.8c-0.6-6.2,0.9-12.5,5.4-16.3
				c10.1-8.9,14.5-19.8,17.4-31.6c1.5-6.1,1-14.3,5.2-17.7c9.3-7.7,0.5-20,10.4-26.6c0.1-0.1-0.7-1.3-1.2-1.9
				C94.5,15.4,87.7,15.5,83.5,10L83.5,10z"/>
		</g>
	</g>
</g>
</svg>
