<?xml version="1.0" encoding="utf-8"?>
<!-- Generator: Adobe Illustrator 27.0.1, SVG Export Plug-In . SVG Version: 6.00 Build 0)  -->
<svg version="1.1" id="圖層_1" xmlns="http://www.w3.org/2000/svg" xmlns:xlink="http://www.w3.org/1999/xlink" x="0px" y="0px"
	 viewBox="0 0 131 129" style="enable-background:new 0 0 131 129;" xml:space="preserve">
<style type="text/css">
	.st0{fill:url(#SVGID_1_);}
	.st1{fill:none;stroke:url(#SVGID_00000157292223642942544290000017255686430498455936_);stroke-width:1.5;stroke-miterlimit:10;}
	.st2{fill:url(#SVGID_00000090272063427390963680000000815753401027800487_);}
</style>
<g>
	<linearGradient id="SVGID_1_" gradientUnits="userSpaceOnUse" x1="56.0717" y1="68.1379" x2="89.9855" y2="68.1379">
		<stop  offset="0" style="stop-color:#EED781"/>
		<stop  offset="0.1789" style="stop-color:#9F823F"/>
		<stop  offset="0.4268" style="stop-color:#D9BD5F"/>
		<stop  offset="0.6272" style="stop-color:#EAE8CF"/>
		<stop  offset="1" style="stop-color:#FCE992"/>
	</linearGradient>
	<polygon class="st0" points="69.9,92.7 64.6,89.8 56.1,83.8 57.6,77.7 61.3,73.1 64.5,73.1 65.9,62.8 68,51.7 73.2,46.9 76.6,44.4 
		80,46.1 84.3,43.6 90,45.7 85.9,49.5 82.8,60.9 80.2,71.7 77.6,78.9 73.2,86.4 	"/>
	
		<linearGradient id="SVGID_00000127029281294801778200000004639938545610576055_" gradientUnits="userSpaceOnUse" x1="1.65" y1="65.3898" x2="129.35" y2="65.3898" gradientTransform="matrix(1 0 0 -1 0 129.8898)">
		<stop  offset="0" style="stop-color:#EED781"/>
		<stop  offset="0.1789" style="stop-color:#9F823F"/>
		<stop  offset="0.4268" style="stop-color:#D9BD5F"/>
		<stop  offset="0.6272" style="stop-color:#EAE8CF"/>
		<stop  offset="1" style="stop-color:#FCE992"/>
	</linearGradient>
	
		<circle style="fill:none;stroke:url(#SVGID_00000127029281294801778200000004639938545610576055_);stroke-width:1.5;stroke-miterlimit:10;" cx="65.5" cy="64.5" r="63.1"/>
	<g>
		<g>
			
				<linearGradient id="SVGID_00000016039884481028011950000014583449986936974505_" gradientUnits="userSpaceOnUse" x1="31.6421" y1="64.4898" x2="99.4086" y2="64.4898" gradientTransform="matrix(1 0 0 -1 0 129.8898)">
				<stop  offset="0" style="stop-color:#EED781"/>
				<stop  offset="0.1789" style="stop-color:#9F823F"/>
				<stop  offset="0.4268" style="stop-color:#D9BD5F"/>
				<stop  offset="0.6272" style="stop-color:#EAE8CF"/>
				<stop  offset="1" style="stop-color:#FCE992"/>
			</linearGradient>
			<path style="fill:url(#SVGID_00000016039884481028011950000014583449986936974505_);" d="M83.8,14.6c2.2,1.7,4.5,2.8,6.7,3.7
				c1.9,0.8,3.6,1.6,4.8,2.6c-4,4-4.2,9.2-4.4,13.6c-0.2,4.5-0.3,8.3-3.9,11.2c-3.8,3.2-4.5,8.5-5.2,13.8c-0.3,2-0.5,3.9-0.9,5.6
				c-2.4,9.9-6.3,21.2-16.5,30.1c-4.8,4.1-7.1,11-6.4,18.9c0.3,3.5-0.2,3.5-0.9,3.6c-0.2,0-0.4,0-0.6,0c-0.1,0-0.1,0-0.2,0
				c-0.1-0.4-0.1-1-0.1-1.5c0-0.7,0-1.6-0.1-2.4c-0.9-5.9-3.6-9.6-8.3-11.5c-3.6-1.4-5.3-4.2-7.4-7.6c-0.6-1-1.2-2-2-3.1
				c-2.8-4.1-4.1-8.5-3.9-13.5c0.2-4.7,1.6-9.5,3.1-14c1.8-5.4,5.6-10.4,9.7-15.7c1.6-2.1,3.4-4.3,4.9-6.6c1.9-2.8,4.2-5.3,6.6-8
				c2.8-3.1,5.7-6.4,8.1-10.1c1.3-2,4-2.9,7-3.9C77.2,18.8,81,17.6,83.8,14.6 M83.5,10c-4.1,8-14.9,5.6-19,12
				c-4.2,6.6-10.3,11.7-14.6,18.1c-5.3,7.6-12.2,14.7-15,23c-3.2,9.5-5.8,20,1.1,30.2c3.1,4.5,4.9,9.5,10.7,11.8
				c4.4,1.7,5.9,5.3,6.5,9.2c0.4,2.7-0.8,6.5,3.4,6.5c0.3,0,0.6,0,0.9,0c3.8-0.4,3.8-4,3.5-6.8c-0.6-6.2,0.9-12.5,5.4-16.3
				c10.1-8.9,14.5-19.8,17.4-31.6c1.5-6.1,1-14.3,5.2-17.7c9.3-7.7,0.5-20,10.4-26.6c0.1-0.1-0.7-1.3-1.2-1.9
				C94.5,15.4,87.7,15.5,83.5,10L83.5,10z"/>
		</g>
	</g>
</g>
</svg>
