<svg xmlns="http://www.w3.org/2000/svg" width="90" height="90" viewBox="0 0 90 90">
    <defs>
        <linearGradient id="enkkwtyhta" x1="31.769%" x2="67.339%" y1="93.831%" y2="3.353%">
            <stop offset="0%" stop-color="#EED781"/>
            <stop offset="17.891%" stop-color="#9F823F"/>
            <stop offset="42.679%" stop-color="#D9BD5F"/>
            <stop offset="100%" stop-color="#FCE992"/>
        </linearGradient>
    </defs>
    <path fill="url(#enkkwtyhta)" fill-rule="evenodd" d="M5.144 27.148c.057.007.543.287 1.296.738 1.269.76 2.762 2.077 4.183 3.77.666.792 4.487 6.031 5.409 8.89-2.274 1.908-3.354 4.392-3.594 7.142-.232 2.638.5 5.361 2.245 7.586l.224.275 6.9 8.222c1.909 2.275 4.57 3.561 7.32 3.802 2.747.24 5.179-.229 7.45-2.136.097-.08 1.28.543 2.62 1.562 3.006 2.287 6.979 6.256 8.382 9.918.306.8.496 1.32.507 1.397v.01l-.008.005c-4.06 3.402-10.112 3.754-16.614 1.571-6.614-2.22-13.634-7.032-19.569-13.94l-.432-.509C5.438 58.271 1.768 50.306.706 43.232c-1.014-6.749.365-12.62 4.37-16.03.024-.017.046-.036.068-.054zm48.775 45.356c.917 0 1.661.743 1.661 1.66 0 .917-.744 1.661-1.66 1.661-.918 0-1.662-.744-1.662-1.66 0-.918.744-1.66 1.661-1.66zM43.323 0C54.01 0 63.686 4.332 70.689 11.336c7.004 7.003 11.335 16.68 11.335 27.365 0 8.645-2.838 16.63-7.636 23.078-3.568 4.793-8.217 8.733-13.585 11.456-.814.414-1.817.073-2.239-.759-.4-.787-.138-1.731.577-2.182l.131-.074c4.904-2.486 9.148-6.08 12.402-10.453 4.374-5.877 6.962-13.166 6.962-21.066 0-9.75-3.952-18.58-10.343-24.969-6.39-6.39-15.218-10.343-24.97-10.343-6.799 0-13.141 1.914-18.518 5.23-3.802 2.347-7.137 5.401-9.809 8.981-1.263 1.691-3.946-.357-2.703-2.019 2.925-3.92 6.575-7.266 10.738-9.834C28.938 2.103 35.889 0 43.323 0zM60.5 23.623c.828 0 1.5.671 1.5 1.5V37.5h1c.828 0 1.5.672 1.5 1.5s-.672 1.5-1.5 1.5h-1v7.623c0 .828-.672 1.5-1.5 1.5s-1.5-.672-1.5-1.5V40.5H48c-.828 0-1.5-.672-1.5-1.5-.046-.417.078-.843.375-1.174L58.92 24.449c.143-.16.313-.28.497-.363.273-.286.657-.463 1.083-.463zm-24.141.887c2.309 0 4.398.937 5.911 2.449 1.513 1.513 2.449 3.603 2.449 5.91 0 2.37-.898 4.087-2.398 5.51-1.341 1.274-3.098 2.227-5.1 3.225-1.69.843-3.244 2.696-4.35 4.29l-.19.278h10.343c.936 0 1.695.758 1.695 1.695 0 .885-.681 1.613-1.549 1.687l-.146.007h-13.33c-.261-.004-.526-.064-.774-.192-.83-.428-1.156-1.448-.728-2.278.009-.017 3.262-6.394 7.52-8.518 1.758-.877 3.28-1.693 4.279-2.641.837-.796 1.339-1.751 1.339-3.062 0-1.372-.556-2.616-1.456-3.515-.899-.9-2.142-1.456-3.515-1.456-1.372 0-2.616.557-3.514 1.456-.9.899-1.456 2.143-1.456 3.515 0 .935-.759 1.694-1.695 1.694S28 33.804 28 32.87c0-2.308.935-4.398 2.449-5.911 1.513-1.512 3.602-2.45 5.91-2.45zm22.64 4.334L51.207 37.5H59v-8.656zm-48.81-8.352c.916 0 1.66.743 1.66 1.66 0 .918-.744 1.66-1.66 1.66-.918 0-1.662-.742-1.662-1.66 0-.917.745-1.66 1.662-1.66z" transform="translate(4 4)"/>
</svg>
