<svg xmlns="http://www.w3.org/2000/svg" width="90" height="90" viewBox="0 0 90 90">
    <defs>
        <linearGradient id="2zwob1c0ca" x1="33.111%" x2="66.063%" y1="94.228%" y2="2.93%">
            <stop offset="0%" stop-color="#EED781"/>
            <stop offset="17.891%" stop-color="#9F823F"/>
            <stop offset="42.679%" stop-color="#D9BD5F"/>
            <stop offset="100%" stop-color="#FCE992"/>
        </linearGradient>
    </defs>
    <path fill="url(#2zwob1c0ca)" fill-rule="evenodd" d="M27.465 53.751h2.923V41.082h-2.923v12.67zm5.847-14.692v16.715c0 1.036-.807 1.875-1.802 1.875h-6.141c-.995 0-1.802-.84-1.802-1.875V39.06c0-1.035.807-1.875 1.802-1.875h6.14c.996 0 1.803.84 1.803 1.875zm9.745 14.692h2.924V41.082h-2.924v12.67zm6.822-14.692v16.715c0 1.036-.807 1.875-1.803 1.875h-6.14c-.996 0-1.803-.84-1.803-1.875V39.06c0-1.035.807-1.875 1.803-1.875h6.14c.996 0 1.803.84 1.803 1.875zm8.77 14.692h2.924V41.082h-2.924v12.67zm-1.121-16.567h6.14c.996 0 1.803.84 1.803 1.875v16.715c0 1.036-.807 1.875-1.802 1.875h-6.141c-.996 0-1.802-.84-1.802-1.875V39.06c0-1.035.806-1.875 1.802-1.875zm11.84-15.592H58.014c-.901 6.628-6.61 11.753-13.494 11.753-6.885 0-12.593-5.125-13.494-11.753H19.67v58.471h9.84v-15.06c0-1.013.824-1.835 1.84-1.835h26.34c1.016 0 1.84.822 1.84 1.836v15.059h9.84v-58.47zM56.7 67.394h-9.744l-.001 12.669H56.7V67.394zm-14.618 0h-9.745v12.669h9.745V67.394zm-7.796-47.75c0 5.373 4.59 9.744 10.233 9.744 5.642 0 10.232-4.371 10.232-9.745 0-5.373-4.59-9.745-10.232-9.745-5.642 0-10.233 4.372-10.233 9.745zm47.751 62.472c0 1.019-.825 1.845-1.844 1.845H8.844C7.826 83.961 7 83.135 7 82.116c0-1.02.826-1.845 1.844-1.845h7.075V19.657c0-1.019.825-1.845 1.844-1.845h13.23C31.895 11.15 37.617 6 44.52 6c6.902 0 12.624 5.15 13.527 11.812h13.23c.488 0 .958.194 1.303.54.346.346.54.816.54 1.305v60.614h7.073c1.019 0 1.844.826 1.844 1.845zM38.184 19.643c0-1.01.819-1.828 1.829-1.828h3.165V14.65c0-1.01.818-1.828 1.828-1.828 1.01 0 1.828.818 1.828 1.828v3.165H50c1.01 0 1.829.818 1.829 1.828 0 1.01-.819 1.828-1.829 1.828h-3.165v3.166c0 1.01-.818 1.828-1.828 1.828-1.01 0-1.828-.819-1.828-1.828V21.47h-3.165c-1.01 0-1.829-.818-1.829-1.828z"/>
</svg>
