<svg xmlns="http://www.w3.org/2000/svg" width="90" height="90" viewBox="0 0 90 90">
    <defs>
        <linearGradient id="7iyluzpsga" x1="31.769%" x2="67.339%" y1="94.225%" y2="2.934%">
            <stop offset="0%" stop-color="#EED781"/>
            <stop offset="17.891%" stop-color="#9F823F"/>
            <stop offset="42.679%" stop-color="#D9BD5F"/>
            <stop offset="100%" stop-color="#FCE992"/>
        </linearGradient>
    </defs>
    <g fill="none" fill-rule="evenodd">
        <path fill="url(#7iyluzpsga)" d="M10.84 69.128c2.657-.623 5.304 1.088 5.911 3.823.595.14 1.16.396 1.664.75.565.395.712 1.187.328 1.768-.385.58-1.154.732-1.72.337-.401-.285-.878-.438-1.366-.44-.683 0-1.237-.569-1.237-1.272 0-.085-.008-.17-.026-.254-.132-1.287-1.184-2.266-2.442-2.272-1.363-.007-2.472 1.124-2.478 2.526.002.736.318 1.434.866 1.909.11.098.202.217.271.348.329.616.109 1.39-.49 1.727-.398.218-.647.642-.647 1.106 0 .702.554 1.272 1.236 1.272h11.053c.683 0 1.237.57 1.237 1.272 0 .703-.554 1.272-1.237 1.272H10.71c-.834.003-1.645-.286-2.3-.817-1.605-1.3-1.88-3.694-.616-5.346-.517-.816-.793-1.768-.794-2.743-.006-2.374 1.588-4.438 3.84-4.966zM32.42 7c2.102 0 3.806 1.701 3.806 3.8v36.733c0 .7-.568 1.268-1.269 1.268-.7 0-1.268-.568-1.268-1.268V10.8c0-.7-.568-1.267-1.269-1.267-.7 0-1.268.567-1.268 1.267v40.534h3.805c2.102 0 3.806 1.7 3.806 3.8v4.534c3.193 2.233 5.089 5.887 5.074 9.779-.012 3.95 2.225 7.562 5.768 9.317l3.68 1.836c.442.207.721.657.715 1.148-.008.7-.582 1.26-1.282 1.252H36.146c-3.454.008-6.815-1.116-9.568-3.198-.556-.426-.66-1.222-.234-1.777.427-.555 1.224-.66 1.78-.234 1.585 1.203 3.425 2.026 5.378 2.407-1.647-1.128-3.043-2.584-4.1-4.276-.32-.573-.15-1.297.394-1.666.58-.393 1.37-.242 1.763.336 1.864 2.928 4.855 4.958 8.267 5.613-1.641-1.133-3.031-2.59-4.083-4.283-.322-.573-.15-1.297.394-1.666.58-.393 1.368-.242 1.762.336 2.092 3.264 5.564 5.395 9.426 5.785-3.762-2.363-6.038-6.494-6.025-10.93-.001-.99-.156-1.972-.46-2.914h-4.614v2.534c0 .7-.568 1.267-1.269 1.267-.7 0-1.268-.568-1.268-1.267v-2.534h-2.537v2.534c0 .7-.568 1.267-1.269 1.267-.7 0-1.269-.568-1.269-1.267v-2.534H23.93c-.762 2.744-.294 5.683 1.282 8.056.02.03.04.062.058.094.342.61.123 1.382-.488 1.723-.612.342-1.385.124-1.726-.487-2.507-3.706-2.737-8.498-.596-12.425.884-1.558 2.124-2.886 3.618-3.875v-4.485c.007-1.605 1.022-3.033 2.537-3.568V10.8c0-2.099 1.704-3.8 3.806-3.8zm26.75 33.477c2.724-.591 5.413 1.119 6.01 3.82 1.366.432 2.371 1.59 2.6 2.994 1.587.885 2.571 2.548 2.575 4.355.001.28-.023.558-.072.834.062.169.087.348.072.527l-.457 5.168c4.801 2.785 7.205 6.943 5.738 10.105-.835 1.798-2.764 2.908-5.42 3.121-.311.025-.627.038-.95.038-.172 0-.353-.026-.528-.032l-.178 2.023c1.107-.585 2.433-.596 3.55-.03.642-.285 1.336-.434 2.038-.433 1.802.006 3.465.961 4.365 2.509h.559c1.887-.025 3.52 1.296 3.878 3.135.035.207.054.418.053.63-.001 2.077-1.701 3.76-3.796 3.759H71.62c-.698 0-1.265-.561-1.265-1.254s.567-1.255 1.265-1.255h7.587c.075 0 .149-.005.222-.019.687-.121 1.146-.772 1.023-1.454-.153-.627-.73-1.059-1.38-1.034H77.71c-.536-.001-1.013-.335-1.192-.835-.354-.998-1.302-1.668-2.37-1.673-.498 0-.986.151-1.398.432-.48.324-1.123.281-1.557-.105-.492-.452-1.258-.436-1.731.038-1.238 1.324-2.964 2.098-4.785 2.143h-.644c-1.397 0-2.53 1.122-2.53 2.507h5.059c.698 0 1.264.562 1.264 1.255 0 .693-.566 1.254-1.264 1.254h-6.323c-.698 0-1.264-.561-1.264-1.254v-1.255c0-2.77 2.264-5.015 5.058-5.015h.644c.406-.005.806-.081 1.186-.224l.364-4.167c-1.325-.28-2.614-.704-3.845-1.264-5.797-2.646-9.062-7.474-7.43-10.985.292-.63 1.044-.905 1.678-.616.634.29.912 1.035.62 1.664-.87 1.89 1.457 5.496 6.196 7.66.964.437 1.97.777 3.002 1.018l.86-9.803.403-4.605h-5.293c-.698 0-1.265-.561-1.265-1.254s.567-1.254 1.265-1.254h5.408c-.007-1.063-.689-2.007-1.702-2.354-.544-.188-.892-.718-.844-1.287l.017-.148c-.014-.683-.576-1.228-1.264-1.228-.698 0-1.265-.561-1.265-1.254-.006-1.12-.762-2.098-1.85-2.396-1.342-.368-2.731.414-3.102 1.745-.012.047-.029.094-.046.139-.261.643-.997.955-1.646.696-1.258-.48-2.675.1-3.228 1.32.684.21 1.315.56 1.85 1.032.305-.037.613-.037.917 0 2.08.25 3.56 2.127 3.307 4.19-.253 2.063-2.144 3.53-4.224 3.28-.271.243-.567.456-.885.635-2.404 1.356-5.461.522-6.828-1.862H45.24l2.122 16.142c.09.687-.397 1.316-1.09 1.406-.054.008-.11.011-.165.01-.635 0-1.171-.467-1.253-1.092L42.64 53.783c-.018-.02-.043-.026-.061-.044-.845-.924-1.31-2.127-1.308-3.375.007-2.763 2.272-4.997 5.057-4.99 1.35 0 2.641.54 3.584 1.498.115-.036.228-.08.347-.108.525-2.277 2.566-3.893 4.92-3.897.225.001.448.018.67.05.704-1.247 1.913-2.134 3.32-2.44zM69.655 61l-.693 7.9c.351.02.703.02 1.054 0 1.327.06 2.59-.574 3.327-1.67.77-1.664-.837-4.249-3.688-6.23zM15 59c2.21 0 4 1.791 4 4 0 2.21-1.79 4-4 4-2.209 0-4-1.79-4-4 0-2.209 1.791-4 4-4zm0 2.667c-.736 0-1.333.597-1.333 1.333 0 .737.597 1.333 1.333 1.333.737 0 1.334-.596 1.334-1.333 0-.736-.597-1.333-1.334-1.333zM32.468 60.2h-.048c-2.9.006-5.612 1.425-7.269 3.8h14.421c-1.61-2.343-4.258-3.76-7.104-3.8zm2.489-6.333h-5.074c-.7 0-1.269.566-1.269 1.267v3.211c1.22-.44 2.508-.67 3.806-.678h.063c1.277.01 2.545.243 3.743.688v-3.221c0-.7-.568-1.267-1.269-1.267zM11 49c2.21 0 4 1.79 4 4s-1.79 4-4 4-4-1.79-4-4 1.79-4 4-4zm0 2.667c-.736 0-1.334.596-1.334 1.333 0 .736.598 1.333 1.334 1.333.736 0 1.334-.597 1.334-1.333 0-.737-.598-1.333-1.334-1.333zm42.337-1.578c-.743-.949-2.071-1.221-3.133-.642h-.01c-.3.16-.566.378-.779.641-.869 1.076-.694 2.647.39 3.509 1.084.86 2.668.688 3.538-.387.338-.416.904-.574 1.41-.393.137.053.282.08.428.083.699 0 1.265-.562 1.265-1.254 0-.693-.566-1.254-1.265-1.254-.146.002-.291.03-.427.082-.507.185-1.075.03-1.417-.385zM79 45c2.209 0 4 1.79 4 4s-1.791 4-4 4c-2.21 0-4-1.79-4-4s1.79-4 4-4zm-32.67 2.883c-1.397 0-2.53 1.123-2.53 2.509 0 .443.125.877.36 1.254h2.17c.003-1.248.478-2.449 1.333-3.365-.398-.256-.86-.394-1.334-.398zM79 47.666c-.736 0-1.333.598-1.333 1.334 0 .736.597 1.333 1.333 1.333s1.333-.597 1.333-1.333-.597-1.334-1.333-1.334zM72 36c2.209 0 4 1.79 4 4s-1.791 4-4 4c-2.21 0-4-1.79-4-4s1.79-4 4-4zm0 2.667c-.736 0-1.333.596-1.333 1.333 0 .736.597 1.333 1.333 1.333s1.333-.597 1.333-1.333c0-.737-.597-1.333-1.333-1.333z"/>
    </g>
</svg>
