<svg xmlns="http://www.w3.org/2000/svg" width="90" height="90" viewBox="0 0 90 90">
    <defs>
        <linearGradient id="jlume9wbba" x1="31.769%" x2="67.339%" y1="80.646%" y2="17.385%">
            <stop offset="0%" stop-color="#EED781"/>
            <stop offset="17.891%" stop-color="#9F823F"/>
            <stop offset="42.679%" stop-color="#D9BD5F"/>
            <stop offset="100%" stop-color="#FCE992"/>
        </linearGradient>
    </defs>
    <path fill="url(#jlume9wbba)" fill-rule="evenodd" d="M45.241 14c7.128 0 13.503 3.77 16.392 9.645h12.574c4.564 0 8.276 3.708 8.276 8.266v35.823c0 4.558-3.712 8.266-8.276 8.266H16.276C11.712 76 8 72.292 8 67.734V31.91c0-4.558 3.712-8.266 8.276-8.266h12.573c1.358-2.758 3.53-5.112 6.311-6.828C38.147 14.973 41.632 14 45.241 14zm28.966 12.4H16.276c-3.042 0-5.517 2.473-5.517 5.51v35.824c0 3.038 2.475 5.51 5.517 5.51h57.93c3.043 0 5.518-2.472 5.518-5.51V31.91c0-3.038-2.475-5.51-5.517-5.51zM64.674 29c.756 0 1.37.612 1.37 1.367 0 .754-.614 1.366-1.37 1.366H16.739c.01 0 0 .01-.002.016l.002 35.518c0-.01.01 0 .016.003l57.505-.003c-.009 0 0-.01.003-.015l-.003-28.685c0-.755.614-1.367 1.37-1.367.757 0 1.37.612 1.37 1.367v28.7C77 68.774 75.77 70 74.26 70H16.74C15.23 70 14 68.774 14 67.267V31.733C14 30.226 15.23 29 16.74 29zm-18.275 7c1.544 0 2.801 1.256 2.801 2.8v7h7c1.543 0 2.8 1.256 2.8 2.8v2.8c0 1.545-1.257 2.8-2.8 2.8h-7v7c0 1.544-1.257 2.8-2.8 2.8h-2.8c-1.544 0-2.8-1.256-2.8-2.8v-7h-7c-1.544 0-2.8-1.255-2.8-2.8v-2.8c0-1.544 1.256-2.8 2.8-2.8h7v-7c0-1.544 1.257-2.8 2.8-2.8zm0 2.8H43.6v8.4c0 .773-.627 1.4-1.4 1.4h-8.4v2.8h8.4c.773 0 1.4.627 1.4 1.4v8.4h2.8v-8.4c0-.773.627-1.4 1.4-1.4h8.4v-2.8h-8.4c-.773 0-1.4-.627-1.4-1.4v-8.4zM74.336 29C75.806 29 77 30.347 77 32v1.5c0 .829-.597 1.5-1.333 1.5s-1.334-.671-1.334-1.5V32c0 .008-.005.004-.01 0h-3.99C69.596 32 69 31.328 69 30.5c0-.829.596-1.5 1.333-1.5zM45.24 16.756c-5.47 0-10.56 2.708-13.229 6.889h26.462c-1.127-1.777-2.696-3.31-4.614-4.492-2.546-1.569-5.526-2.397-8.619-2.397z"/>
</svg>
