<svg xmlns="http://www.w3.org/2000/svg" width="90" height="90" viewBox="0 0 90 90">
    <defs>
        <linearGradient id="i6updnidba" x1="32.681%" x2="66.472%" y1="94.228%" y2="2.93%">
            <stop offset="0%" stop-color="#EED781"/>
            <stop offset="17.891%" stop-color="#9F823F"/>
            <stop offset="42.679%" stop-color="#D9BD5F"/>
            <stop offset="100%" stop-color="#FCE992"/>
        </linearGradient>
    </defs>
    <path fill="url(#i6updnidba)" fill-rule="evenodd" d="M54.931 5.394c.441-.447 1.136-.523 1.663-.18.525.34.74 1.006.513 1.59 0 0-.18.5-.125 1.05.06.593.366.981.993 1.258 3.541 1.564 5.262 4.349 5.262 8.515V28.95c.845.062 1.882.287 2.706.929.752.587 1.203 1.425 1.305 2.423.134 1.313.242 4.588-1.631 6.665-.642.71-1.451 1.192-2.38 1.421v.283c0 .064-.005.127-.014.19-.023.16-.596 3.97-3.144 7.929-1.63 2.534-4.307 5.458-8.54 7.214v4.229h6.644c.383.002 5.495.085 9.58 4.146 3.267 3.244 4.92 8.042 4.92 14.259v2.713h8.995c.73 0 1.322.593 1.322 1.325 0 .73-.592 1.324-1.322 1.324H7.322C6.592 84 6 83.407 6 82.676c0-.732.591-1.325 1.322-1.325h8.992v-2.713c0-6.216 1.656-11.015 4.921-14.26 4.01-3.986 9.003-4.14 9.563-4.145h6.663v-4.228c-4.234-1.757-6.91-4.681-8.542-7.215-2.546-3.96-3.12-7.768-3.143-7.928-.01-.064-.014-.127-.014-.191v-.276c-.943-.226-1.761-.708-2.412-1.428-1.872-2.077-1.763-5.352-1.63-6.665.103-.998.553-1.836 1.305-2.423.826-.645 1.87-.868 2.715-.93v-7.522c-.016-.394-.085-3.17 1.095-6.141 1.18-2.976 3.852-6.704 9.877-7.566 4.368-.626 7.686-.543 10.35-.475 4.091.104 5.98.068 7.87-1.851zM36.334 62.882h-4.683v5.405c2.099.582 3.646 2.51 3.646 4.795 0 2.742-2.229 4.975-4.968 4.975-2.74 0-4.97-2.233-4.97-4.975 0-2.284 1.547-4.213 3.646-4.795v-5.185c-3.339.696-10.044 3.581-10.044 15.536v2.713h17.373V62.88zm2.646 3.028v15.44h10.95V66.02c-1.29 1.568-3.247 2.57-5.431 2.57-2.235 0-4.228-1.049-5.519-2.68zm18.956-3.028h-5.358V81.35h17.46v-2.713c0-5.485-1.392-9.65-4.139-12.38-1.77-1.76-3.789-2.602-5.317-3.005v4.762c1.138.412 2.073 1.282 2.694 2.53.563 1.127.695 2.196.708 2.315.007.049.01.098.01.147v3.606c0 .732-.593 1.325-1.324 1.325-.731 0-1.324-.593-1.324-1.325v-3.517c-.06-.389-.452-2.489-2.086-2.69-1.636.201-2.03 2.307-2.089 2.689v3.518c0 .732-.591 1.325-1.322 1.325-.731 0-1.324-.593-1.324-1.325v-3.606c0-.049.003-.098.01-.147.012-.119.144-1.187.706-2.315.622-1.248 1.557-2.118 2.695-2.53v-5.133zM30.33 70.756c-1.282 0-2.323 1.044-2.323 2.326s1.04 2.325 2.323 2.325c1.28 0 2.322-1.043 2.322-2.325 0-1.282-1.041-2.326-2.322-2.326zM30 72c.553 0 1 .447 1 .998 0 .555-.447 1.002-1 1.002-.551 0-1-.447-1-1.002 0-.55.449-.998 1-.998zm18.892-15.117c-1.266.325-2.641.55-4.141.647-.028.002-.056.002-.085.002h-.332c-.03 0-.057 0-.086-.002-1.499-.098-2.875-.322-4.141-.647v4.661c0 2.425 1.97 4.397 4.392 4.397 2.421 0 4.392-1.972 4.392-4.397v-.034zm2.561-37.152c-2.787 2.067-6.32 2.771-10.39 2.04-2.314-.417-4.31-1.211-5.573-1.8-1.881 4.662-5.27 6.222-7.082 6.736v13.857c.096.541.718 3.691 2.79 6.872 2.964 4.557 7.399 7.062 13.178 7.448h.246c5.78-.386 10.216-2.891 13.18-7.448 2.068-3.178 2.692-6.325 2.789-6.874V27.691c-3.182-.233-5.6-1.33-7.202-3.27-1.227-1.488-1.743-3.214-1.936-4.69zm-.807 24.773c.458-.582 1.293-.673 1.862-.204.569.469.657 1.32.2 1.902-.228.286-2.37 2.798-7.883 2.798-5.486 0-8.277-2.54-8.393-2.649-.54-.502-.58-1.358-.086-1.91.49-.55 1.322-.59 1.863-.095.103.093 2.239 1.95 6.616 1.95 3.773 0 5.442-1.42 5.763-1.733l.043-.043.015-.016zM46.684 34c.726 0 1.316.658 1.316 1.471C48 37.417 46.582 39 44.84 39h-.68C42.419 39 41 37.417 41 35.471c0-.813.59-1.471 1.316-1.471.728 0 1.318.658 1.318 1.471 0 .324.237.588.527.588h.678c.29 0 .527-.264.527-.588 0-.813.59-1.471 1.318-1.471zm-20.921-2.392c-.421.046-.846.152-1.113.362-.127.1-.261.249-.298.601-.157 1.544.014 3.568.964 4.62.134.15.284.273.447.375zm37.474.004v5.934c.15-.098.29-.214.416-.355.95-1.052 1.12-3.076.963-4.62-.038-.352-.17-.501-.297-.6-.261-.206-.672-.311-1.082-.36zM35.499 28c.83 0 1.501.672 1.501 1.5 0 .83-.672 1.5-1.5 1.5-.83 0-1.5-.67-1.5-1.5 0-.828.67-1.5 1.5-1.5zM53.5 28c.827 0 1.5.672 1.5 1.5 0 .83-.673 1.5-1.5 1.5s-1.5-.67-1.5-1.5c0-.828.673-1.5 1.5-1.5zm1.023-19.046c-2.15 1.075-4.536 1.015-7.527.94-2.565-.065-5.76-.146-9.91.448-3.829.548-6.45 2.54-7.793 5.922-1.034 2.602-.91 5.034-.908 5.058l.003.075v2.525c1.536-.62 3.917-2.203 5.08-6.198.116-.394.405-.712.786-.862.38-.149.81-.115 1.161.095.027.015 2.76 1.617 6.183 2.219 4.35.763 7.769-.388 10.164-3.42.38-.478 1.036-.637 1.59-.382s.863.856.748 1.455c-.006.03-.629 3.545 1.34 5.918 1.095 1.315 2.824 2.08 5.151 2.284v-7.404c0-3.129-1.102-4.951-3.683-6.09-1.35-.596-2.069-1.562-2.385-2.583z"/>
</svg>
