<svg xmlns="http://www.w3.org/2000/svg" width="90" height="90" viewBox="0 0 90 90">
    <defs>
        <linearGradient id="m8s6cfg35a" x1="31.769%" x2="67.339%" y1="85.923%" y2="11.769%">
            <stop offset="0%" stop-color="#EED781"/>
            <stop offset="17.891%" stop-color="#9F823F"/>
            <stop offset="42.679%" stop-color="#D9BD5F"/>
            <stop offset="100%" stop-color="#FCE992"/>
        </linearGradient>
    </defs>
    <path fill="url(#m8s6cfg35a)" fill-rule="evenodd" d="M21 59c-1.105 0-2 .895-2 2s.895 2 2 2 2-.895 2-2-.895-2-2-2zm38 0c-1.104 0-2 .895-2 2s.896 2 2 2 2-.895 2-2-.896-2-2-2zm12.196 0H77v-8.624L58.748 25H4v34h5.924c.945-5.377 5.708-9.48 11.423-9.48S31.824 53.623 32.769 59h15.582c.945-5.377 5.708-9.48 11.422-9.48 5.716 0 10.478 4.103 11.423 9.48zM67 61.5c0-4.135-3.364-7.5-7.5-7.5-4.135 0-7.5 3.365-7.5 7.5s3.365 7.5 7.5 7.5c4.136 0 7.5-3.364 7.5-7.5zM51 69c-1.37-1.667-2.326-3.728-2.697-6H32.697c-.37 2.272-1.327 4.333-2.697 6h21zm-23-7.5c0-4.135-3.364-7.5-7.5-7.5-4.135 0-7.5 3.365-7.5 7.5s3.365 7.5 7.5 7.5c4.136 0 7.5-3.364 7.5-7.5zM42 21h5v-2.5c0-1.379-1.105-2.5-2.464-2.5h-.071C43.105 16 42 17.121 42 18.5V21zm29.217 42.43c-.37 2.125-1.326 4.052-2.694 5.612H79.01c1.098 0 1.989.886 1.989 1.979S80.11 73 79.011 73H2.11c-1.098 0-1.988-.886-1.988-1.98 0-1.092.89-1.978 1.988-1.978h10.488c-1.369-1.56-2.324-3.487-2.694-5.612H1.988C.89 63.43 0 62.544 0 61.451V23.17c0-1.093.89-1.98 1.988-1.98h36.056v-2.616c0-3.625 2.963-6.574 6.604-6.574h.076c3.64 0 6.603 2.95 6.603 6.574v2.617h8.46c.643 0 1.248.31 1.62.833L80.633 48.99c.239.335.367.735.367 1.146V61.45c0 1.093-.89 1.98-1.988 1.98h-7.795zM26.99 34.49h-3.48v-3.48c0-1.11-.9-2.01-2.01-2.01-1.11 0-2.01.9-2.01 2.01v3.48h-3.48c-1.11 0-2.01.9-2.01 2.01 0 1.11.9 2.01 2.01 2.01h3.48v3.48c0 1.11.9 2.01 2.01 2.01 1.11 0 2.01-.9 2.01-2.01v-3.48h3.48c1.11 0 2.01-.9 2.01-2.01 0-1.11-.9-2.01-2.01-2.01zM58 40l-4.799-7H45v7h13zm4.642.773c.42.623.475 1.441.142 2.12-.333.68-.997 1.107-1.722 1.107H42.938C41.868 44 41 43.085 41 41.956V31.044c0-1.129.867-2.044 1.938-2.044H53.72c.628 0 1.217.32 1.58.861l7.341 10.912zM44 9c1.105 0 2-.899 2-2.008V2.008C46 .898 45.105 0 44 0s-2 .899-2 2.008v4.984C42 8.102 42.895 9 44 9zm-9.182 2.454c.364.364.84.546 1.318.546.477 0 .954-.182 1.318-.546.728-.728.728-1.908 0-2.636l-3.272-3.272c-.727-.728-1.908-.728-2.636 0-.728.728-.728 1.908 0 2.636l3.272 3.272zm15.728 0c-.728-.728-.728-1.908 0-2.636l3.272-3.272c.728-.728 1.908-.728 2.636 0 .728.728.728 1.908 0 2.636l-3.272 3.272c-.364.364-.841.546-1.318.546-.477 0-.954-.182-1.318-.546z" transform="translate(5 9)"/>
</svg>
