<svg xmlns="http://www.w3.org/2000/svg" width="90" height="90" viewBox="0 0 90 90">
    <defs>
        <linearGradient id="lypc1m32ya" x1="35.453%" x2="63.835%" y1="94.228%" y2="2.93%">
            <stop offset="0%" stop-color="#EED781"/>
            <stop offset="17.891%" stop-color="#9F823F"/>
            <stop offset="42.679%" stop-color="#D9BD5F"/>
            <stop offset="100%" stop-color="#FCE992"/>
        </linearGradient>
    </defs>
    <path fill="url(#lypc1m32ya)" fill-rule="evenodd" d="M46.572 8.24c3.774 0 7.911 1.478 11.965 4.276 3.023 2.085 4.933 4.153 5.013 4.24.403.44.399 1.114-.01 1.549l-.964 1.022c3.797 3.551 5.723 8.287 5.723 14.081v36.5c0 .06-.006.119-.014.175 1.028 2.31 1.551 5.082 1.551 8.3v2.336h7.8c.634 0 1.146.51 1.146 1.14 0 .63-.512 1.141-1.146 1.141H13.147C12.514 83 12 82.49 12 81.86c0-.63.514-1.14 1.147-1.14h7.8v-2.338c0-3.282.542-6.103 1.613-8.44-.028-.1-.044-.204-.044-.312V33.408c0-6.069 1.793-10.93 5.332-14.462l-.605-.641c-.409-.435-.414-1.109-.01-1.548.08-.088 1.99-2.156 5.013-4.241 4.053-2.798 8.191-4.277 11.965-4.277zm10.716 56.578h-1.256l1.52 5.973c.127.499-.099 1.02-.55 1.273l-3.436 1.924-.194 2.914c-.026.401-.263.76-.624.941l-5.68 2.876h20.473v-2.337c0-4.721-1.207-8.307-3.59-10.657-2.785-2.748-6.273-2.9-6.663-2.907zm-22.659 0h-1.157c-.959.022-10.23.571-10.23 13.564v2.337h20.345l-5.739-2.905c-.367-.185-.605-.552-.625-.962l-.139-2.87-3.425-1.918c-.451-.253-.676-.774-.55-1.273l1.52-5.974zm14.572-5.166c-1.098.28-2.29.475-3.59.558l-.075.003h-.289c-.025 0-.05 0-.074-.003-1.3-.083-2.494-.278-3.591-.558v4.026c0 .63-.514 1.14-1.148 1.14h-2.43l7.326 13.816 7.327-13.817H50.35c-.634 0-1.148-.51-1.148-1.14zm-12.719 7.189l-.932 3.664 3.213 1.798c.344.193.564.547.583.94l.138 2.84 2.596 1.314-5.598-10.556zm17.697 0l-5.596 10.552 2.542-1.288.19-2.883c.026-.384.245-.73.583-.919l3.213-1.798-.932-3.665zM61.817 75c.653 0 1.183.448 1.183 1s-.53 1-1.183 1h-3.634C57.53 77 57 76.552 57 76c0-.553.53-1 1.183-1zm-32.4-54.389c-3.058 3.092-4.606 7.392-4.606 12.797V66.53c.132-.144.264-.287.403-.424 3.61-3.562 8.138-3.569 8.332-3.569h5.74V59.08c0-.06.007-.119.016-.177-3.681-1.511-6.008-4.033-7.424-6.219-2.208-3.407-2.706-6.687-2.726-6.824-.008-.055-.012-.11-.012-.164V31.899c0-.63.514-1.14 1.148-1.14h10.284v-2.524c0-.46.28-.877.708-1.053.429-.177.922-.08 1.251.247l3.188 3.169 14.788.16c.629.007 1.135.516 1.135 1.141v13.797c0 .054-.004.11-.012.164-.02.137-.517 3.417-2.726 6.824-1.416 2.186-3.743 4.708-7.423 6.219.008.058.015.117.015.177v3.457h5.748c.179.004 4.716.008 8.324 3.569.15.148.294.302.436.457V33.408c0-5.136-1.682-9.312-4.997-12.416l-4.549 4.827c-.415.44-1.1.483-1.567.101-.065-.05-2.7-2.042-9.5-2.042-3.59 0-5.987.56-7.366 1.027-1.48.503-2.129 1.011-2.135 1.016-.212.177-.469.264-.725.264-.306 0-.613-.125-.84-.366zm13.45 10.378v.91c0 .63-.514 1.14-1.148 1.14H31.435v12.564c.083.466.623 3.178 2.419 5.917 2.572 3.922 6.417 6.08 11.43 6.411h.214c5.014-.331 8.86-2.489 11.431-6.411 1.794-2.737 2.334-5.445 2.418-5.918V33.027l-14.121-.153c-.3-.004-.587-.124-.8-.335l-1.56-1.55zm8.055 17.414c.405-.465 1.141-.538 1.643-.163s.581 1.056.176 1.521c-.2.23-2.09 2.239-6.953 2.239-4.842 0-7.305-2.031-7.407-2.119-.476-.403-.51-1.087-.076-1.528.432-.44 1.167-.473 1.643-.075.094.075 1.978 1.558 5.84 1.558 3.719 0 5.122-1.419 5.134-1.433zM46.817 41c.653 0 1.183.457 1.183 1.02 0 1.092-1.03 1.98-2.295 1.98h-.41C44.029 44 43 43.112 43 42.02c0-.563.53-1.02 1.183-1.02.629 0 1.144.424 1.18.96h.274c.036-.536.551-.96 1.18-.96zM37.5 36c.829 0 1.5.671 1.5 1.5s-.671 1.5-1.5 1.5c-.828 0-1.5-.671-1.5-1.5s.672-1.5 1.5-1.5zm16 0c.828 0 1.5.672 1.5 1.5s-.672 1.5-1.5 1.5-1.5-.672-1.5-1.5.672-1.5 1.5-1.5zm-7.18-21.679h-1.857c-6.228 0-11.78 5.974-11.837 6.034-.051.056-.107.106-.165.15l2.89 3.067c.423-.227.996-.495 1.737-.758 2.278-.807 5.071-1.216 8.304-1.216 3.231 0 6.025.409 8.303 1.216.741.263 1.314.531 1.736.758l2.892-3.069c-.059-.043-.115-.092-.167-.148-.055-.06-5.63-6.034-11.837-6.034zm.252-3.8h-2.36c-6.546 0-12.498 5.08-14.537 7.027l1.228 1.303c.01-.01.018-.022.028-.033.254-.276 6.302-6.777 13.533-6.777h1.856c7.23 0 13.278 6.5 13.532 6.777.01.01.018.023.028.034l1.228-1.304c-2.044-1.945-8.006-7.028-14.536-7.028z"/>
</svg>
