<svg xmlns="http://www.w3.org/2000/svg" width="40" height="40" viewBox="0 0 40 40">
    <path fill="#5C5739" fill-rule="evenodd" d="M19.777 2.196c2.357 0 4.678.673 6.713 1.946.322.202.42.626.216.946-.202.321-.629.418-.951.216-1.814-1.135-3.881-1.735-5.978-1.735-6.358 0-11.73 5.532-11.73 12.08 0 6.944 9.439 17.532 11.73 20 2.293-2.468 11.732-13.056 11.732-20 0-2.15-.59-4.285-1.703-6.171-.194-.327-.084-.748.245-.94.328-.192.751-.082.945.245 1.238 2.096 1.893 4.47 1.893 6.866 0 6.786-8.211 16.959-12.615 21.48-.13.134-.31.21-.497.21-.186 0-.365-.076-.495-.21-4.418-4.535-12.615-14.7-12.615-21.48 0-7.086 5.758-13.453 13.11-13.453zm.448 6.842l.091.064 7.316 6.075c.292.243.326.67.075.952-.224.254-.603.308-.89.139l-.093-.065-.94-.781v6.344c0 .339-.257.619-.593.667l-.103.007h-10.45c-.35 0-.64-.25-.69-.574l-.007-.1v-6.344l-.94.78c-.292.243-.732.21-.982-.073-.226-.254-.22-.625-.005-.874l.08-.078 7.316-6.075c.231-.193.561-.214.815-.064zm-.362 1.466l-4.529 3.76v6.827h3.832v-2.7c0-.373.312-.676.697-.676.35 0 .639.25.689.576l.007.1v2.7h3.832v-6.826l-4.528-3.761zm-.085 4.431c.368 0 .666.295.666.66 0 .363-.298.658-.666.658-.368 0-.667-.295-.667-.658 0-.365.299-.66.667-.66zm8.804-9.255c.39 0 .707.313.707.699 0 .385-.317.698-.707.698-.39 0-.707-.313-.707-.698 0-.386.317-.699.707-.699z"/>
</svg>
