<?xml version="1.0" encoding="utf-8"?>
<!-- Generator: Adobe Illustrator 16.0.0, SVG Export Plug-In . SVG Version: 6.00 Build 0)  -->
<!DOCTYPE svg PUBLIC "-//W3C//DTD SVG 1.1//EN" "http://www.w3.org/Graphics/SVG/1.1/DTD/svg11.dtd">
<svg version="1.1" id="圖層_1" xmlns="http://www.w3.org/2000/svg" xmlns:xlink="http://www.w3.org/1999/xlink" x="0px" y="0px"
	 width="41px" height="40px" viewBox="0 0 41 40" enable-background="new 0 0 41 40" xml:space="preserve">
<path fill="#5C5739" d="M8.864,28.012l2.754-2.75c0.529,0.637,1.116,1.223,1.753,1.75l-2.754,2.75c-0.484,0.483-1.268,0.483-1.753,0
	C8.38,29.277,8.38,28.495,8.864,28.012 M11.911,9.481c0.42,1.316,1.18,1.45,3.12,2.68c0.583,0.354,1.05,0.375,1.839,0.51
	c0.355,0.06,0.626,0.326,0.703,0.67c0.014,0.06-0.004,0.131-0.057,0.18c-0.036,0.035,0.018-0.003-1.37,0.713
	c-0.238,0.122-0.428,0.316-0.546,0.55c-0.103,0.205-0.05,0.116-0.744,2.734c-0.362,1.394,1.53,2.171,2.274,0.97l0.301-0.487
	c0.077-0.125,0.258-0.123,0.332,0.005l1.258,2.159c0.154,0.264,0.399,0.463,0.69,0.56l1.835,0.6
	c0.205,0.068,0.362,0.224,0.433,0.429c0.148,0.437-0.181,0.707-0.252,0.851c-0.347,0.508-0.396,1.135-0.16,1.67
	c0.164,0.373,0.348,0.504,0.961,1.166c0.265,0.285,0.16,0.6,0.183,0.877c0,0.217-0.104,0.426-0.287,0.556
	c-0.521,0.371-0.807,1.012-0.71,1.667c0.04,0.271,0.13,0.443,0.154,0.51c-6.863-0.048-12.29-5.64-12.29-12.35
	C9.577,14.101,10.4,11.574,11.911,9.481 M29.111,35.635v0.19c0,0.739-0.603,1.343-1.344,1.343H16.126
	c-0.74,0-1.342-0.602-1.342-1.342v-0.189c0-1.519,1.111-2.781,2.604-2.98c1.42,0.4,2.957,0.623,4.56,0.623
	c1.545,0,3.083-0.213,4.548-0.625C27.994,32.85,29.111,34.113,29.111,35.635 M33.361,21.469c-2.596-1.954-1.616-1.353-3.008-2.094
	c-0.979-0.522-1.775,0.075-2.357-0.515c-0.453-0.46-1.13-0.69-1.805-0.56c-0.105,0.021-0.047,0.01-1.449,0.373
	c-0.067,0.017-0.141,0.004-0.195-0.036c-0.954-0.711-1.043-0.691-1.044-0.873c-0.002-0.14,0.009-0.063,1.14-1.599
	c0.822-1.09,0.395-2.069,1.144-2.886c0.724-0.786,1.664-0.543,1.794-0.556c0.699,0.05,1.369-0.318,1.701-0.936l0.48-0.893
	c0.117-0.22,0.336-0.361,0.584-0.382c0.594-0.047,1.127-0.387,1.416-0.903l0.137-0.244c1.535,2.072,2.42,4.643,2.42,7.335
	C34.318,18.354,33.992,19.971,33.361,21.469 M30.523,6.388l2.754-2.75c0.482-0.482,1.271-0.482,1.752,0
	c0.484,0.483,0.484,1.268,0,1.75l-2.754,2.75c-0.016-0.02-0.029-0.039-0.047-0.058c-0.498-0.592-1.08-1.173-1.699-1.687
	L30.523,6.388 M11.364,30.506l0.575-0.572c1.19,0.901,2.476,1.629,3.833,2.172c-1.232,0.701-2.045,2.021-2.045,3.531v0.189
	c0,1.32,1.076,2.396,2.4,2.396h11.641c1.323,0,2.4-1.076,2.4-2.396v-0.189c0-1.511-0.816-2.834-2.051-3.535
	c2.063-0.822,3.955-2.061,5.572-3.676c3.138-3.132,4.867-7.296,4.867-11.726c0-3.66-1.16-7.104-3.354-9.991l0.575-0.575
	c0.896-0.893,0.896-2.347,0-3.241c-0.895-0.894-2.352-0.894-3.248,0L29.678,5.74c-2.24-1.576-4.928-2.445-7.729-2.445
	c-1.582,0-3.133,0.273-4.61,0.812c-0.273,0.1-0.414,0.403-0.314,0.676c0.1,0.274,0.404,0.415,0.678,0.315
	c1.36-0.496,2.788-0.748,4.245-0.748c2.727,0,5.337,0.892,7.467,2.503c0.65,0.494,1.227,1.028,1.768,1.633
	c-0.311,0.513-0.341,0.706-0.584,0.862c-0.311,0.198-0.533,0.031-1.078,0.34c-0.604,0.343-0.707,0.781-1.17,1.6
	c-0.135,0.253-0.408,0.403-0.695,0.383c-0.113,0.014-1.545-0.304-2.646,0.895c-0.638,0.695-0.688,1.338-0.889,2.264
	c-0.131,0.602-0.393,0.741-1.416,2.16c-0.434,0.579-0.305,1.392,0.275,1.814l0.948,0.687c0.302,0.217,0.695,0.302,1.081,0.203
	l1.327-0.345c0.313-0.081,0.663,0.001,0.909,0.251c0.806,0.818,1.773,0.54,2.287,0.603c0.279,0.034,0.373,0.146,1.085,0.504
	c0.122,0.066,0.041,0.021,2.282,1.736c-0.69,1.314-1.614,2.49-2.729,3.482c-0.217,0.193-0.237,0.526-0.043,0.745
	c0.19,0.214,0.526,0.238,0.745,0.043c2.759-2.452,4.503-6.028,4.503-10.014c0-2.887-0.903-5.535-2.45-7.718l1.524-1.52
	C36.445,10.14,37.5,13.32,37.5,16.7c0,4.149-1.619,8.048-4.557,10.979c-2.94,2.934-6.854,4.547-10.995,4.547
	c-3.3,0-6.51-1.006-9.254-3.047c0.134-0.133,1.376-1.373,1.524-1.52c2.271,1.602,4.937,2.443,7.73,2.443
	c2.72,0,5.268-0.816,7.377-2.205c0.243-0.16,0.312-0.487,0.151-0.73c-0.16-0.242-0.488-0.313-0.731-0.15
	c-1.729,1.137-3.767,1.828-5.752,1.986l-0.19-0.46c-0.121-0.296-0.019-0.633,0.233-0.812c0.917-0.65,0.702-1.664,0.731-1.826
	c0-0.442-0.166-0.863-0.47-1.188l-0.631-0.673c-0.219-0.231-0.244-0.588-0.067-0.849c0.131-0.199,0.227-0.305,0.32-0.514
	c0.417-0.92-0.046-2.033-1.044-2.361c-1.942-0.642-1.886-0.594-1.94-0.688c-1.369-2.348-1.312-2.32-1.576-2.523
	c-0.56-0.432-1.421-0.322-1.827,0.335l-0.3,0.487c-0.097,0.155-0.335,0.103-0.358-0.077c-0.01-0.07-0.024,0.056,0.656-2.563
	c0.04-0.153,0.146-0.123,1.425-0.804c1.262-0.646,0.626-2.597-0.907-2.86c-0.725-0.145-1.042-0.11-1.469-0.37l-1.925-1.167
	c-0.779-0.472-0.786-1.247-0.936-1.615c0.922-1.033,2.003-1.897,3.216-2.572c0.254-0.142,0.346-0.463,0.204-0.718
	c-0.142-0.254-0.464-0.345-0.719-0.204c-1.405,0.783-2.647,1.8-3.691,3.022l-0.007,0.008c-2.063,2.419-3.2,5.503-3.2,8.686
	c0,2.869,0.908,5.53,2.452,7.713l-2.855,2.853c-0.898,0.896-0.898,2.346,0,3.24c0.896,0.896,2.35,0.896,3.246,0"/>
</svg>
