<?xml version="1.0" encoding="utf-8"?>
<!-- Generator: Adobe Illustrator 16.0.0, SVG Export Plug-In . SVG Version: 6.00 Build 0)  -->
<!DOCTYPE svg PUBLIC "-//W3C//DTD SVG 1.1//EN" "http://www.w3.org/Graphics/SVG/1.1/DTD/svg11.dtd">
<svg version="1.1" id="圖層_1" xmlns="http://www.w3.org/2000/svg" xmlns:xlink="http://www.w3.org/1999/xlink" x="0px" y="0px"
	 width="40px" height="40px" viewBox="0 0 40 40" enable-background="new 0 0 40 40" xml:space="preserve">
<path fill="#FFFFFF" d="M19.777,2.196c2.357,0,4.678,0.673,6.713,1.946c0.322,0.202,0.42,0.626,0.216,0.946
	c-0.202,0.321-0.629,0.418-0.951,0.216c-1.813-1.135-3.881-1.735-5.978-1.735c-6.358,0-11.73,5.532-11.73,12.08
	c0,6.945,9.439,17.533,11.73,20c2.293-2.467,11.732-13.055,11.732-20c0-2.15-0.59-4.285-1.702-6.171
	c-0.195-0.327-0.084-0.748,0.244-0.94s0.751-0.082,0.945,0.245c1.238,2.096,1.893,4.47,1.893,6.866
	c0,6.787-8.211,16.958-12.615,21.48c-0.13,0.135-0.31,0.21-0.497,0.21c-0.186,0-0.365-0.075-0.495-0.21
	C14.864,32.594,6.667,22.43,6.667,15.649C6.667,8.563,12.425,2.196,19.777,2.196z M20.225,9.038l0.091,0.064l7.316,6.075
	c0.292,0.243,0.326,0.67,0.075,0.952c-0.225,0.254-0.604,0.308-0.891,0.139l-0.092-0.065l-0.94-0.781v6.344
	c0,0.34-0.257,0.619-0.593,0.668l-0.104,0.006h-10.45c-0.35,0-0.64-0.25-0.69-0.573l-0.007-0.101v-6.344l-0.94,0.78
	c-0.292,0.243-0.732,0.21-0.982-0.073c-0.226-0.254-0.22-0.625-0.005-0.874l0.08-0.078l7.316-6.075
	C19.641,8.909,19.971,8.888,20.225,9.038z M19.863,10.504l-4.529,3.76v6.827h3.832v-2.7c0-0.373,0.312-0.676,0.697-0.676
	c0.35,0,0.639,0.25,0.689,0.576l0.007,0.1v2.7h3.832v-6.826L19.863,10.504z M19.778,14.935c0.368,0,0.666,0.295,0.666,0.66
	c0,0.363-0.298,0.658-0.666,0.658c-0.368,0-0.667-0.295-0.667-0.658C19.111,15.23,19.41,14.935,19.778,14.935z M28.582,5.68
	c0.391,0,0.707,0.313,0.707,0.699c0,0.385-0.316,0.698-0.707,0.698s-0.707-0.313-0.707-0.698C27.875,5.993,28.191,5.68,28.582,5.68z
	"/>
</svg>
