<svg xmlns="http://www.w3.org/2000/svg" width="90" height="90" viewBox="0 0 90 90">
    <defs>
        <linearGradient id="2beapiiola" x1="2.717%" x2="100%" y1="43.983%" y2="43.983%">
            <stop offset="0%" stop-color="#D5B880"/>
            <stop offset="20.474%" stop-color="#EAC88B"/>
            <stop offset="63.091%" stop-color="#DCB87F"/>
            <stop offset="100%" stop-color="#AF8D5A"/>
        </linearGradient>
        <linearGradient id="ftwdfqmopb" x1="2.717%" x2="100%" y1="43.983%" y2="43.983%">
            <stop offset="0%" stop-color="#D5B880"/>
            <stop offset="20.474%" stop-color="#EAC88B"/>
            <stop offset="63.091%" stop-color="#DCB87F"/>
            <stop offset="100%" stop-color="#AF8D5A"/>
        </linearGradient>
    </defs>
    <g fill="none" fill-rule="evenodd">
        <rect width="88" height="88" x="1" y="1" stroke="url(#2beapiiola)" stroke-width="2" rx="44"/>
        <path fill="url(#ftwdfqmopb)" d="M18.959.173c.728 0 1.332.43 1.63 1.025l.007.012c4.85 1.103 7.784 1.778 7.784 8.275 0 4.21-1.901 9.688-4.966 13.708.06.482-.043.99-.388 1.382-2.345 2.675-4.98 4.24-7.676 4.598l.025 8.295c0 5.642 4.616 10.225 10.303 10.225 5.687 0 10.3-4.58 10.3-10.225v-7.243c-3.286-.542-5.792-3.365-5.792-6.79 0-3.8 3.13-6.895 6.961-6.895 3.831 0 6.96 3.095 6.96 6.895 0 3.423-2.532 6.245-5.816 6.79v7.243C38.29 44.378 32.639 50 25.678 50c-6.961 0-12.638-5.622-12.64-12.532l-.003-8.295c-2.695-.36-5.304-1.918-7.646-4.575-.345-.393-.45-.898-.39-1.383-3.09-4.02-5-9.515-5-13.73C0 2.973 2.94 2.31 7.794 1.198 8.12.603 8.718.173 9.451.173c1.028 0 1.856.822 1.856 1.827 0 1.015-.828 1.84-1.856 1.84-.43 0-.786-.167-1.11-.405l-.016.015c-4.74 1.073-5.989 1.363-5.989 6.035 0 3.708 1.768 8.67 4.473 12.263.444.025.884.22 1.217.585 1.377 1.58 3.579 3.457 6.18 3.457 2.602 0 4.803-1.895 6.183-3.477.33-.365.77-.56 1.22-.588 2.696-3.577 4.462-8.537 4.462-12.24 0-4.667-1.272-4.96-5.982-6.032l-.042-.015c-.303.237-.685.405-1.088.405-1.028 0-1.856-.825-1.856-1.843 0-1.005.83-1.827 1.856-1.827zm18.188 18.665c-2.553 0-4.649 2.065-4.649 4.6 0 2.545 2.096 4.612 4.65 4.612 2.553 0 4.623-2.067 4.623-4.612 0-2.535-2.07-4.6-4.624-4.6zM37.333 20c1.836 0 3.334 1.489 3.334 3.328 0 1.852-1.498 3.339-3.334 3.339-1.835 0-3.333-1.487-3.333-3.339C34 21.49 35.498 20 37.333 20z" transform="translate(23 20)"/>
    </g>
</svg>
